<svg id="グループ_1" data-name="グループ 1" xmlns="http://www.w3.org/2000/svg" width="592.993" height="403.521" viewBox="0 0 592.993 403.521">
  <rect id="長方形_2" data-name="長方形 2" width="497.936" height="267.849" fill="#3f3d56"/>
  <rect id="長方形_3" data-name="長方形 3" width="4.391" height="7.026" transform="translate(90.015 37.762)" fill="#6c63ff"/>
  <rect id="長方形_4" data-name="長方形 4" width="4.391" height="7.026" transform="translate(104.944 36.006)" fill="#6c63ff"/>
  <rect id="長方形_5" data-name="長方形 5" width="4.391" height="7.026" transform="translate(112.848 36.006)" fill="#6c63ff"/>
  <rect id="長方形_6" data-name="長方形 6" width="4.391" height="7.026" transform="translate(112.848 57.083)" fill="#6c63ff"/>
  <rect id="長方形_7" data-name="長方形 7" width="4.391" height="7.026" transform="translate(121.63 46.544)" fill="#6c63ff"/>
  <rect id="長方形_8" data-name="長方形 8" width="4.391" height="7.026" transform="translate(121.63 57.961)" fill="#6c63ff"/>
  <rect id="長方形_9" data-name="長方形 9" width="4.391" height="7.026" transform="translate(112.848 79.916)" fill="#6c63ff"/>
  <rect id="長方形_10" data-name="長方形 10" width="4.391" height="7.026" transform="translate(121.63 91.332)" fill="#6c63ff"/>
  <rect id="長方形_11" data-name="長方形 11" width="4.391" height="7.026" transform="translate(112.848 134.364)" fill="#6c63ff"/>
  <rect id="長方形_12" data-name="長方形 12" width="4.391" height="7.026" transform="translate(104.944 91.332)" fill="#6c63ff"/>
  <rect id="長方形_13" data-name="長方形 13" width="4.391" height="7.026" transform="translate(90.015 49.179)" fill="#6c63ff"/>
  <rect id="長方形_14" data-name="長方形 14" width="4.391" height="7.026" transform="translate(90.015 158.953)" fill="#6c63ff"/>
  <rect id="長方形_15" data-name="長方形 15" width="4.391" height="7.026" transform="translate(90.015 181.786)" fill="#6c63ff"/>
  <rect id="長方形_16" data-name="長方形 16" width="4.391" height="7.026" transform="translate(90.015 193.203)" fill="#6c63ff"/>
  <rect id="長方形_17" data-name="長方形 17" width="6.147" height="0.878" transform="translate(88.258 61.474)" fill="#6c63ff"/>
  <rect id="長方形_18" data-name="長方形 18" width="6.147" height="0.878" transform="translate(111.97 72.012)" fill="#6c63ff"/>
  <rect id="長方形_19" data-name="長方形 19" width="6.147" height="0.878" transform="translate(88.258 117.678)" fill="#6c63ff"/>
  <rect id="長方形_20" data-name="長方形 20" width="6.147" height="0.878" transform="translate(88.258 127.338)" fill="#6c63ff"/>
  <rect id="長方形_21" data-name="長方形 21" width="6.147" height="0.878" transform="translate(111.97 183.543)" fill="#6c63ff"/>
  <rect id="長方形_22" data-name="長方形 22" width="6.147" height="0.878" transform="translate(104.944 204.619)" fill="#6c63ff"/>
  <path id="パス_1" data-name="パス 1" d="M158.179,121.914v1.756h1.756v3.513h-1.756v1.756h4.391v-7.025Z" transform="translate(-68.164 -52.536)" fill="#6c63ff"/>
  <path id="パス_2" data-name="パス 2" d="M184.414,100.309v1.756h1.756v3.513h-1.756v1.756H188.8v-7.025Z" transform="translate(-79.47 -43.226)" fill="#6c63ff"/>
  <path id="パス_3" data-name="パス 3" d="M213.735,120.37v1.757h1.756v3.513h-1.756V127.4h4.391V120.37Z" transform="translate(-92.105 -51.871)" fill="#6c63ff"/>
  <path id="パス_4" data-name="パス 4" d="M213.735,180.556v1.756h1.756v3.513h-1.756v1.756h4.391v-7.025Z" transform="translate(-92.105 -77.807)" fill="#6c63ff"/>
  <path id="パス_5" data-name="パス 5" d="M213.735,200.617v1.757h1.756v3.513h-1.756v1.756h4.391v-7.026Z" transform="translate(-92.105 -86.452)" fill="#6c63ff"/>
  <path id="パス_6" data-name="パス 6" d="M213.735,138.889v1.756h1.756v3.513h-1.756v1.757h4.391v-7.026Z" transform="translate(-92.105 -59.851)" fill="#6c63ff"/>
  <path id="パス_7" data-name="パス 7" d="M198.3,81.79v1.757h1.757v3.512H198.3v1.757h4.392V81.79Z" transform="translate(-85.454 -35.246)" fill="#6c63ff"/>
  <rect id="長方形_23" data-name="長方形 23" width="4.391" height="7.026" transform="translate(112.848 102.749)" fill="#6c63ff"/>
  <rect id="長方形_24" data-name="長方形 24" width="4.391" height="7.026" transform="translate(112.848 123.825)" fill="#6c63ff"/>
  <path id="パス_8" data-name="パス 8" d="M198.3,199.074v1.756h1.757v3.513H198.3V206.1h4.392v-7.026Z" transform="translate(-85.454 -85.787)" fill="#6c63ff"/>
  <path id="パス_9" data-name="パス 9" d="M184.414,120.37v1.757h1.756v3.513h-1.756V127.4H188.8V120.37Z" transform="translate(-79.47 -51.871)" fill="#6c63ff"/>
  <path id="パス_10" data-name="パス 10" d="M184.414,140.432v1.757h1.756V145.7h-1.756v1.757H188.8v-7.026Z" transform="translate(-79.47 -60.516)" fill="#6c63ff"/>
  <rect id="長方形_25" data-name="長方形 25" width="4.391" height="7.026" transform="translate(104.944 114.165)" fill="#6c63ff"/>
  <path id="パス_11" data-name="パス 11" d="M184.414,180.556v1.756h1.756v3.513h-1.756v1.756H188.8v-7.025Z" transform="translate(-79.47 -77.807)" fill="#6c63ff"/>
  <rect id="長方形_26" data-name="長方形 26" width="4.391" height="7.026" transform="translate(104.944 136.998)" fill="#6c63ff"/>
  <path id="パス_12" data-name="パス 12" d="M184.414,220.679v1.756h1.756v3.513h-1.756V227.7H188.8v-7.026Z" transform="translate(-79.47 -95.097)" fill="#6c63ff"/>
  <rect id="長方形_27" data-name="長方形 27" width="4.391" height="7.026" transform="translate(104.944 159.831)" fill="#6c63ff"/>
  <rect id="長方形_28" data-name="長方形 28" width="4.391" height="7.026" transform="translate(112.848 158.075)" fill="#6c63ff"/>
  <path id="パス_13" data-name="パス 13" d="M184.414,260.8v1.757h1.756v3.513h-1.756v1.756H188.8V260.8Z" transform="translate(-79.47 -112.387)" fill="#6c63ff"/>
  <path id="パス_14" data-name="パス 14" d="M213.735,260.8v1.757h1.756v3.513h-1.756v1.756h4.391V260.8Z" transform="translate(-92.105 -112.387)" fill="#6c63ff"/>
  <rect id="長方形_29" data-name="長方形 29" width="4.391" height="7.026" transform="translate(166.418 46.544)" fill="#6c63ff"/>
  <rect id="長方形_30" data-name="長方形 30" width="4.391" height="7.026" transform="translate(166.418 57.961)" fill="#6c63ff"/>
  <rect id="長方形_31" data-name="長方形 31" width="4.391" height="7.026" transform="translate(166.418 91.332)" fill="#6c63ff"/>
  <path id="パス_15" data-name="パス 15" d="M292.438,120.37v1.757h1.757v3.513h-1.757V127.4h4.391V120.37Z" transform="translate(-126.02 -51.871)" fill="#6c63ff"/>
  <path id="パス_16" data-name="パス 16" d="M292.438,180.556v1.756h1.757v3.513h-1.757v1.756h4.391v-7.025Z" transform="translate(-126.02 -77.807)" fill="#6c63ff"/>
  <path id="パス_17" data-name="パス 17" d="M292.438,200.617v1.757h1.757v3.513h-1.757v1.756h4.391v-7.026Z" transform="translate(-126.02 -86.452)" fill="#6c63ff"/>
  <path id="パス_18" data-name="パス 18" d="M292.438,138.889v1.756h1.757v3.513h-1.757v1.757h4.391v-7.026Z" transform="translate(-126.02 -59.851)" fill="#6c63ff"/>
  <path id="パス_19" data-name="パス 19" d="M292.438,260.8v1.757h1.757v3.513h-1.757v1.756h4.391V260.8Z" transform="translate(-126.02 -112.387)" fill="#6c63ff"/>
  <rect id="長方形_32" data-name="長方形 32" width="4.391" height="7.026" transform="translate(104.944 182.664)" fill="#6c63ff"/>
  <rect id="長方形_33" data-name="長方形 33" width="4.391" height="7.026" transform="translate(112.848 169.491)" fill="#6c63ff"/>
  <rect id="長方形_34" data-name="長方形 34" width="4.391" height="7.026" transform="translate(104.944 212.523)" fill="#6c63ff"/>
  <rect id="長方形_35" data-name="長方形 35" width="4.391" height="7.026" transform="translate(112.848 191.446)" fill="#6c63ff"/>
  <path id="パス_20" data-name="パス 20" d="M184.414,300.926v1.756h1.756V306.2h-1.756v1.757H188.8v-7.026Z" transform="translate(-79.47 -129.678)" fill="#6c63ff"/>
  <path id="パス_21" data-name="パス 21" d="M184.414,395.062v1.756h1.756v3.513h-1.756v1.756H188.8v-7.025Z" transform="translate(-79.47 -170.244)" fill="#6c63ff"/>
  <rect id="長方形_36" data-name="長方形 36" width="4.391" height="7.026" transform="translate(153.245 36.006)" fill="#6c63ff"/>
  <rect id="長方形_37" data-name="長方形 37" width="4.391" height="7.026" transform="translate(153.245 91.332)" fill="#6c63ff"/>
  <rect id="長方形_38" data-name="長方形 38" width="6.147" height="0.878" transform="translate(153.245 204.619)" fill="#6c63ff"/>
  <path id="パス_22" data-name="パス 22" d="M269.29,100.309v1.756h1.757v3.513H269.29v1.756h4.391v-7.025Z" transform="translate(-116.045 -43.226)" fill="#6c63ff"/>
  <path id="パス_23" data-name="パス 23" d="M269.29,120.37v1.757h1.757v3.513H269.29V127.4h4.391V120.37Z" transform="translate(-116.045 -51.871)" fill="#6c63ff"/>
  <path id="パス_24" data-name="パス 24" d="M269.29,140.432v1.757h1.757V145.7H269.29v1.757h4.391v-7.026Z" transform="translate(-116.045 -60.516)" fill="#6c63ff"/>
  <rect id="長方形_39" data-name="長方形 39" width="4.391" height="7.026" transform="translate(153.245 114.165)" fill="#6c63ff"/>
  <path id="パス_25" data-name="パス 25" d="M269.29,180.556v1.756h1.757v3.513H269.29v1.756h4.391v-7.025Z" transform="translate(-116.045 -77.807)" fill="#6c63ff"/>
  <rect id="長方形_40" data-name="長方形 40" width="4.391" height="7.026" transform="translate(153.245 136.998)" fill="#6c63ff"/>
  <path id="パス_26" data-name="パス 26" d="M269.29,220.679v1.756h1.757v3.513H269.29V227.7h4.391v-7.026Z" transform="translate(-116.045 -95.097)" fill="#6c63ff"/>
  <rect id="長方形_41" data-name="長方形 41" width="4.391" height="7.026" transform="translate(153.245 159.831)" fill="#6c63ff"/>
  <path id="パス_27" data-name="パス 27" d="M269.29,260.8v1.757h1.757v3.513H269.29v1.756h4.391V260.8Z" transform="translate(-116.045 -112.387)" fill="#6c63ff"/>
  <rect id="長方形_42" data-name="長方形 42" width="4.391" height="7.026" transform="translate(153.245 182.664)" fill="#6c63ff"/>
  <rect id="長方形_43" data-name="長方形 43" width="4.391" height="7.026" transform="translate(153.245 212.523)" fill="#6c63ff"/>
  <path id="パス_28" data-name="パス 28" d="M269.29,300.926v1.756h1.757V306.2H269.29v1.757h4.391v-7.026Z" transform="translate(-116.045 -129.678)" fill="#6c63ff"/>
  <path id="パス_29" data-name="パス 29" d="M269.29,395.062v1.756h1.757v3.513H269.29v1.756h4.391v-7.025Z" transform="translate(-116.045 -170.244)" fill="#6c63ff"/>
  <rect id="長方形_44" data-name="長方形 44" width="4.391" height="7.026" transform="translate(174.321 36.006)" fill="#6c63ff"/>
  <rect id="長方形_45" data-name="長方形 45" width="4.391" height="7.026" transform="translate(174.321 91.332)" fill="#6c63ff"/>
  <rect id="長方形_46" data-name="長方形 46" width="6.147" height="0.878" transform="translate(174.321 204.619)" fill="#6c63ff"/>
  <path id="パス_30" data-name="パス 30" d="M306.327,100.309v1.756h1.757v3.513h-1.757v1.756h4.391v-7.025Z" transform="translate(-132.006 -43.226)" fill="#6c63ff"/>
  <path id="パス_31" data-name="パス 31" d="M306.327,120.37v1.757h1.757v3.513h-1.757V127.4h4.391V120.37Z" transform="translate(-132.006 -51.871)" fill="#6c63ff"/>
  <path id="パス_32" data-name="パス 32" d="M306.327,140.432v1.757h1.757V145.7h-1.757v1.757h4.391v-7.026Z" transform="translate(-132.006 -60.516)" fill="#6c63ff"/>
  <rect id="長方形_47" data-name="長方形 47" width="4.391" height="7.026" transform="translate(174.321 114.165)" fill="#6c63ff"/>
  <path id="パス_33" data-name="パス 33" d="M306.327,180.556v1.756h1.757v3.513h-1.757v1.756h4.391v-7.025Z" transform="translate(-132.006 -77.807)" fill="#6c63ff"/>
  <rect id="長方形_48" data-name="長方形 48" width="4.391" height="7.026" transform="translate(174.321 136.998)" fill="#6c63ff"/>
  <path id="パス_34" data-name="パス 34" d="M306.327,220.679v1.756h1.757v3.513h-1.757V227.7h4.391v-7.026Z" transform="translate(-132.006 -95.097)" fill="#6c63ff"/>
  <rect id="長方形_49" data-name="長方形 49" width="4.391" height="7.026" transform="translate(174.321 159.831)" fill="#6c63ff"/>
  <path id="パス_35" data-name="パス 35" d="M306.327,260.8v1.757h1.757v3.513h-1.757v1.756h4.391V260.8Z" transform="translate(-132.006 -112.387)" fill="#6c63ff"/>
  <rect id="長方形_50" data-name="長方形 50" width="4.391" height="7.026" transform="translate(174.321 182.664)" fill="#6c63ff"/>
  <rect id="長方形_51" data-name="長方形 51" width="4.391" height="7.026" transform="translate(174.321 212.523)" fill="#6c63ff"/>
  <path id="パス_36" data-name="パス 36" d="M306.327,300.926v1.756h1.757V306.2h-1.757v1.757h4.391v-7.026Z" transform="translate(-132.006 -129.678)" fill="#6c63ff"/>
  <path id="パス_37" data-name="パス 37" d="M306.327,395.062v1.756h1.757v3.513h-1.757v1.756h4.391v-7.025Z" transform="translate(-132.006 -170.244)" fill="#6c63ff"/>
  <path id="パス_38" data-name="パス 38" d="M198.3,373.457v1.756h1.757v3.513H198.3v1.756h4.392v-7.025Z" transform="translate(-85.454 -160.934)" fill="#6c63ff"/>
  <path id="パス_39" data-name="パス 39" d="M198.3,393.519v1.756h1.757v3.513H198.3v1.756h4.392v-7.025Z" transform="translate(-85.454 -169.579)" fill="#6c63ff"/>
  <path id="パス_40" data-name="パス 40" d="M158.179,160.494v1.756h1.756v3.513h-1.756v1.757h4.391v-7.026Z" transform="translate(-68.164 -69.162)" fill="#6c63ff"/>
  <path id="パス_41" data-name="パス 41" d="M158.179,239.2v1.756h1.756v3.513h-1.756v1.756h4.391V239.2Z" transform="translate(-68.164 -103.078)" fill="#6c63ff"/>
  <path id="パス_42" data-name="パス 42" d="M158.179,259.259v1.757h1.756v3.513h-1.756v1.756h4.391v-7.026Z" transform="translate(-68.164 -111.723)" fill="#6c63ff"/>
  <path id="パス_43" data-name="パス 43" d="M158.179,299.383v1.756h1.756v3.513h-1.756v1.756h4.391v-7.025Z" transform="translate(-68.164 -129.013)" fill="#6c63ff"/>
  <path id="パス_44" data-name="パス 44" d="M158.179,356.481v1.757h1.756v3.513h-1.756v1.756h4.391v-7.026Z" transform="translate(-68.164 -153.618)" fill="#6c63ff"/>
  <path id="パス_45" data-name="パス 45" d="M158.179,373.457v1.756h1.756v3.513h-1.756v1.756h4.391v-7.025Z" transform="translate(-68.164 -160.934)" fill="#6c63ff"/>
  <rect id="長方形_52" data-name="長方形 52" width="4.391" height="7.026" transform="translate(135.681 37.762)" fill="#6c63ff"/>
  <rect id="長方形_53" data-name="長方形 53" width="4.391" height="7.026" transform="translate(135.681 49.179)" fill="#6c63ff"/>
  <rect id="長方形_54" data-name="長方形 54" width="6.147" height="0.878" transform="translate(133.925 61.474)" fill="#6c63ff"/>
  <rect id="長方形_55" data-name="長方形 55" width="6.147" height="0.878" transform="translate(133.925 117.678)" fill="#6c63ff"/>
  <rect id="長方形_56" data-name="長方形 56" width="6.147" height="0.878" transform="translate(133.925 127.338)" fill="#6c63ff"/>
  <path id="パス_46" data-name="パス 46" d="M238.426,121.914v1.756h1.756v3.513h-1.756v1.756h4.391v-7.025Z" transform="translate(-102.745 -52.536)" fill="#6c63ff"/>
  <path id="パス_47" data-name="パス 47" d="M238.426,160.494v1.756h1.756v3.513h-1.756v1.757h4.391v-7.026Z" transform="translate(-102.745 -69.162)" fill="#6c63ff"/>
  <path id="パス_48" data-name="パス 48" d="M238.426,239.2v1.756h1.756v3.513h-1.756v1.756h4.391V239.2Z" transform="translate(-102.745 -103.078)" fill="#6c63ff"/>
  <rect id="長方形_57" data-name="長方形 57" width="4.391" height="7.026" transform="translate(185.738 114.165)" fill="#6c63ff"/>
  <rect id="長方形_58" data-name="長方形 58" width="4.391" height="7.026" transform="translate(185.738 125.582)" fill="#6c63ff"/>
  <rect id="長方形_59" data-name="長方形 59" width="6.147" height="0.878" transform="translate(183.982 137.876)" fill="#6c63ff"/>
  <rect id="長方形_60" data-name="長方形 60" width="6.147" height="0.878" transform="translate(183.982 194.081)" fill="#6c63ff"/>
  <rect id="長方形_61" data-name="長方形 61" width="6.147" height="0.878" transform="translate(183.982 203.741)" fill="#6c63ff"/>
  <path id="パス_49" data-name="パス 49" d="M326.389,256.173v1.756h1.756v3.513h-1.756V263.2h4.391v-7.026Z" transform="translate(-140.651 -110.393)" fill="#6c63ff"/>
  <path id="パス_50" data-name="パス 50" d="M326.389,294.753v1.757h1.756v3.512h-1.756v1.757h4.391v-7.026Z" transform="translate(-140.651 -127.018)" fill="#6c63ff"/>
  <path id="パス_51" data-name="パス 51" d="M326.389,373.457v1.756h1.756v3.513h-1.756v1.756h4.391v-7.025Z" transform="translate(-140.651 -160.934)" fill="#6c63ff"/>
  <rect id="長方形_62" data-name="長方形 62" width="4.391" height="7.026" transform="translate(199.789 37.762)" fill="#6c63ff"/>
  <rect id="長方形_63" data-name="長方形 63" width="4.391" height="7.026" transform="translate(214.718 36.006)" fill="#6c63ff"/>
  <rect id="長方形_64" data-name="長方形 64" width="4.391" height="7.026" transform="translate(222.622 36.006)" fill="#6c63ff"/>
  <rect id="長方形_65" data-name="長方形 65" width="4.391" height="7.026" transform="translate(222.622 57.083)" fill="#6c63ff"/>
  <rect id="長方形_66" data-name="長方形 66" width="4.391" height="7.026" transform="translate(231.404 46.544)" fill="#6c63ff"/>
  <rect id="長方形_67" data-name="長方形 67" width="4.391" height="7.026" transform="translate(231.404 57.961)" fill="#6c63ff"/>
  <rect id="長方形_68" data-name="長方形 68" width="4.391" height="7.026" transform="translate(222.622 79.916)" fill="#6c63ff"/>
  <rect id="長方形_69" data-name="長方形 69" width="4.391" height="7.026" transform="translate(231.404 91.332)" fill="#6c63ff"/>
  <rect id="長方形_70" data-name="長方形 70" width="4.391" height="7.026" transform="translate(222.622 134.364)" fill="#6c63ff"/>
  <rect id="長方形_71" data-name="長方形 71" width="4.391" height="7.026" transform="translate(214.718 91.332)" fill="#6c63ff"/>
  <rect id="長方形_72" data-name="長方形 72" width="4.391" height="7.026" transform="translate(199.789 49.179)" fill="#6c63ff"/>
  <rect id="長方形_73" data-name="長方形 73" width="4.391" height="7.026" transform="translate(199.789 158.953)" fill="#6c63ff"/>
  <rect id="長方形_74" data-name="長方形 74" width="4.391" height="7.026" transform="translate(199.789 181.786)" fill="#6c63ff"/>
  <rect id="長方形_75" data-name="長方形 75" width="4.391" height="7.026" transform="translate(199.789 193.203)" fill="#6c63ff"/>
  <rect id="長方形_76" data-name="長方形 76" width="6.147" height="0.878" transform="translate(198.033 61.474)" fill="#6c63ff"/>
  <rect id="長方形_77" data-name="長方形 77" width="6.147" height="0.878" transform="translate(221.744 72.012)" fill="#6c63ff"/>
  <rect id="長方形_78" data-name="長方形 78" width="6.147" height="0.878" transform="translate(198.033 117.678)" fill="#6c63ff"/>
  <rect id="長方形_79" data-name="長方形 79" width="6.147" height="0.878" transform="translate(198.033 127.338)" fill="#6c63ff"/>
  <rect id="長方形_80" data-name="長方形 80" width="6.147" height="0.878" transform="translate(221.744 183.543)" fill="#6c63ff"/>
  <rect id="長方形_81" data-name="長方形 81" width="6.147" height="0.878" transform="translate(214.718 204.619)" fill="#6c63ff"/>
  <path id="パス_52" data-name="パス 52" d="M351.08,121.914v1.756h1.757v3.513H351.08v1.756h4.391v-7.025Z" transform="translate(-151.291 -52.536)" fill="#6c63ff"/>
  <path id="パス_53" data-name="パス 53" d="M377.315,100.309v1.756h1.756v3.513h-1.756v1.756h4.391v-7.025Z" transform="translate(-162.596 -43.226)" fill="#6c63ff"/>
  <path id="パス_54" data-name="パス 54" d="M406.636,120.37v1.757h1.756v3.513h-1.756V127.4h4.391V120.37Z" transform="translate(-175.232 -51.871)" fill="#6c63ff"/>
  <path id="パス_55" data-name="パス 55" d="M406.636,180.556v1.756h1.756v3.513h-1.756v1.756h4.391v-7.025Z" transform="translate(-175.232 -77.807)" fill="#6c63ff"/>
  <path id="パス_56" data-name="パス 56" d="M406.636,200.617v1.757h1.756v3.513h-1.756v1.756h4.391v-7.026Z" transform="translate(-175.232 -86.452)" fill="#6c63ff"/>
  <path id="パス_57" data-name="パス 57" d="M406.636,138.889v1.756h1.756v3.513h-1.756v1.757h4.391v-7.026Z" transform="translate(-175.232 -59.851)" fill="#6c63ff"/>
  <path id="パス_58" data-name="パス 58" d="M391.2,81.79v1.757h1.756v3.512H391.2v1.757h4.391V81.79Z" transform="translate(-168.582 -35.246)" fill="#6c63ff"/>
  <rect id="長方形_82" data-name="長方形 82" width="4.391" height="7.026" transform="translate(222.622 102.749)" fill="#6c63ff"/>
  <rect id="長方形_83" data-name="長方形 83" width="4.391" height="7.026" transform="translate(222.622 123.825)" fill="#6c63ff"/>
  <path id="パス_59" data-name="パス 59" d="M391.2,199.074v1.756h1.756v3.513H391.2V206.1h4.391v-7.026Z" transform="translate(-168.582 -85.787)" fill="#6c63ff"/>
  <path id="パス_60" data-name="パス 60" d="M377.315,120.37v1.757h1.756v3.513h-1.756V127.4h4.391V120.37Z" transform="translate(-162.596 -51.871)" fill="#6c63ff"/>
  <path id="パス_61" data-name="パス 61" d="M377.315,140.432v1.757h1.756V145.7h-1.756v1.757h4.391v-7.026Z" transform="translate(-162.596 -60.516)" fill="#6c63ff"/>
  <rect id="長方形_84" data-name="長方形 84" width="4.391" height="7.026" transform="translate(214.718 114.165)" fill="#6c63ff"/>
  <path id="パス_62" data-name="パス 62" d="M377.315,180.556v1.756h1.756v3.513h-1.756v1.756h4.391v-7.025Z" transform="translate(-162.596 -77.807)" fill="#6c63ff"/>
  <rect id="長方形_85" data-name="長方形 85" width="4.391" height="7.026" transform="translate(214.718 136.998)" fill="#6c63ff"/>
  <path id="パス_63" data-name="パス 63" d="M377.315,220.679v1.756h1.756v3.513h-1.756V227.7h4.391v-7.026Z" transform="translate(-162.596 -95.097)" fill="#6c63ff"/>
  <rect id="長方形_86" data-name="長方形 86" width="4.391" height="7.026" transform="translate(214.718 159.831)" fill="#6c63ff"/>
  <rect id="長方形_87" data-name="長方形 87" width="4.391" height="7.026" transform="translate(222.622 158.075)" fill="#6c63ff"/>
  <path id="パス_64" data-name="パス 64" d="M377.315,260.8v1.757h1.756v3.513h-1.756v1.756h4.391V260.8Z" transform="translate(-162.596 -112.387)" fill="#6c63ff"/>
  <path id="パス_65" data-name="パス 65" d="M406.636,260.8v1.757h1.756v3.513h-1.756v1.756h4.391V260.8Z" transform="translate(-175.232 -112.387)" fill="#6c63ff"/>
  <rect id="長方形_88" data-name="長方形 88" width="4.391" height="7.026" transform="translate(276.192 46.544)" fill="#6c63ff"/>
  <rect id="長方形_89" data-name="長方形 89" width="4.391" height="7.026" transform="translate(276.192 57.961)" fill="#6c63ff"/>
  <rect id="長方形_90" data-name="長方形 90" width="4.391" height="7.026" transform="translate(276.192 91.332)" fill="#6c63ff"/>
  <path id="パス_66" data-name="パス 66" d="M485.34,120.37v1.757H487.1v3.513H485.34V127.4h4.391V120.37Z" transform="translate(-209.148 -51.871)" fill="#6c63ff"/>
  <path id="パス_67" data-name="パス 67" d="M485.34,180.556v1.756H487.1v3.513H485.34v1.756h4.391v-7.025Z" transform="translate(-209.148 -77.807)" fill="#6c63ff"/>
  <path id="パス_68" data-name="パス 68" d="M485.34,200.617v1.757H487.1v3.513H485.34v1.756h4.391v-7.026Z" transform="translate(-209.148 -86.452)" fill="#6c63ff"/>
  <path id="パス_69" data-name="パス 69" d="M485.34,138.889v1.756H487.1v3.513H485.34v1.757h4.391v-7.026Z" transform="translate(-209.148 -59.851)" fill="#6c63ff"/>
  <path id="パス_70" data-name="パス 70" d="M485.34,260.8v1.757H487.1v3.513H485.34v1.756h4.391V260.8Z" transform="translate(-209.148 -112.387)" fill="#6c63ff"/>
  <rect id="長方形_91" data-name="長方形 91" width="4.391" height="7.026" transform="translate(214.718 182.664)" fill="#6c63ff"/>
  <rect id="長方形_92" data-name="長方形 92" width="4.391" height="7.026" transform="translate(222.622 169.491)" fill="#6c63ff"/>
  <rect id="長方形_93" data-name="長方形 93" width="4.391" height="7.026" transform="translate(214.718 212.523)" fill="#6c63ff"/>
  <rect id="長方形_94" data-name="長方形 94" width="4.391" height="7.026" transform="translate(222.622 191.446)" fill="#6c63ff"/>
  <path id="パス_71" data-name="パス 71" d="M377.315,300.926v1.756h1.756V306.2h-1.756v1.757h4.391v-7.026Z" transform="translate(-162.596 -129.678)" fill="#6c63ff"/>
  <path id="パス_72" data-name="パス 72" d="M377.315,395.062v1.756h1.756v3.513h-1.756v1.756h4.391v-7.025Z" transform="translate(-162.596 -170.244)" fill="#6c63ff"/>
  <rect id="長方形_95" data-name="長方形 95" width="4.391" height="7.026" transform="translate(263.019 36.006)" fill="#6c63ff"/>
  <rect id="長方形_96" data-name="長方形 96" width="4.391" height="7.026" transform="translate(263.019 91.332)" fill="#6c63ff"/>
  <rect id="長方形_97" data-name="長方形 97" width="6.147" height="0.878" transform="translate(263.019 204.619)" fill="#6c63ff"/>
  <path id="パス_73" data-name="パス 73" d="M462.191,100.309v1.756h1.757v3.513h-1.757v1.756h4.391v-7.025Z" transform="translate(-199.172 -43.226)" fill="#6c63ff"/>
  <path id="パス_74" data-name="パス 74" d="M462.191,120.37v1.757h1.757v3.513h-1.757V127.4h4.391V120.37Z" transform="translate(-199.172 -51.871)" fill="#6c63ff"/>
  <path id="パス_75" data-name="パス 75" d="M462.191,140.432v1.757h1.757V145.7h-1.757v1.757h4.391v-7.026Z" transform="translate(-199.172 -60.516)" fill="#6c63ff"/>
  <rect id="長方形_98" data-name="長方形 98" width="4.391" height="7.026" transform="translate(263.019 114.165)" fill="#6c63ff"/>
  <path id="パス_76" data-name="パス 76" d="M462.191,180.556v1.756h1.757v3.513h-1.757v1.756h4.391v-7.025Z" transform="translate(-199.172 -77.807)" fill="#6c63ff"/>
  <rect id="長方形_99" data-name="長方形 99" width="4.391" height="7.026" transform="translate(263.019 136.998)" fill="#6c63ff"/>
  <path id="パス_77" data-name="パス 77" d="M462.191,220.679v1.756h1.757v3.513h-1.757V227.7h4.391v-7.026Z" transform="translate(-199.172 -95.097)" fill="#6c63ff"/>
  <rect id="長方形_100" data-name="長方形 100" width="4.391" height="7.026" transform="translate(263.019 159.831)" fill="#6c63ff"/>
  <path id="パス_78" data-name="パス 78" d="M462.191,260.8v1.757h1.757v3.513h-1.757v1.756h4.391V260.8Z" transform="translate(-199.172 -112.387)" fill="#6c63ff"/>
  <rect id="長方形_101" data-name="長方形 101" width="4.391" height="7.026" transform="translate(263.019 182.664)" fill="#6c63ff"/>
  <rect id="長方形_102" data-name="長方形 102" width="4.391" height="7.026" transform="translate(263.019 212.523)" fill="#6c63ff"/>
  <path id="パス_79" data-name="パス 79" d="M462.191,300.926v1.756h1.757V306.2h-1.757v1.757h4.391v-7.026Z" transform="translate(-199.172 -129.678)" fill="#6c63ff"/>
  <path id="パス_80" data-name="パス 80" d="M462.191,395.062v1.756h1.757v3.513h-1.757v1.756h4.391v-7.025Z" transform="translate(-199.172 -170.244)" fill="#6c63ff"/>
  <rect id="長方形_103" data-name="長方形 103" width="4.391" height="7.026" transform="translate(284.096 36.006)" fill="#6c63ff"/>
  <rect id="長方形_104" data-name="長方形 104" width="4.391" height="7.026" transform="translate(284.096 91.332)" fill="#6c63ff"/>
  <rect id="長方形_105" data-name="長方形 105" width="6.147" height="0.878" transform="translate(284.096 204.619)" fill="#6c63ff"/>
  <path id="パス_81" data-name="パス 81" d="M499.228,100.309v1.756h1.757v3.513h-1.757v1.756h4.391v-7.025Z" transform="translate(-215.133 -43.226)" fill="#6c63ff"/>
  <path id="パス_82" data-name="パス 82" d="M499.228,120.37v1.757h1.757v3.513h-1.757V127.4h4.391V120.37Z" transform="translate(-215.133 -51.871)" fill="#6c63ff"/>
  <path id="パス_83" data-name="パス 83" d="M499.228,140.432v1.757h1.757V145.7h-1.757v1.757h4.391v-7.026Z" transform="translate(-215.133 -60.516)" fill="#6c63ff"/>
  <rect id="長方形_106" data-name="長方形 106" width="4.391" height="7.026" transform="translate(284.096 114.165)" fill="#6c63ff"/>
  <path id="パス_84" data-name="パス 84" d="M499.228,180.556v1.756h1.757v3.513h-1.757v1.756h4.391v-7.025Z" transform="translate(-215.133 -77.807)" fill="#6c63ff"/>
  <rect id="長方形_107" data-name="長方形 107" width="4.391" height="7.026" transform="translate(284.096 136.998)" fill="#6c63ff"/>
  <path id="パス_85" data-name="パス 85" d="M499.228,220.679v1.756h1.757v3.513h-1.757V227.7h4.391v-7.026Z" transform="translate(-215.133 -95.097)" fill="#6c63ff"/>
  <rect id="長方形_108" data-name="長方形 108" width="4.391" height="7.026" transform="translate(284.096 159.831)" fill="#6c63ff"/>
  <path id="パス_86" data-name="パス 86" d="M499.228,260.8v1.757h1.757v3.513h-1.757v1.756h4.391V260.8Z" transform="translate(-215.133 -112.387)" fill="#6c63ff"/>
  <rect id="長方形_109" data-name="長方形 109" width="4.391" height="7.026" transform="translate(284.096 182.664)" fill="#6c63ff"/>
  <rect id="長方形_110" data-name="長方形 110" width="4.391" height="7.026" transform="translate(284.096 212.523)" fill="#6c63ff"/>
  <path id="パス_87" data-name="パス 87" d="M499.228,300.926v1.756h1.757V306.2h-1.757v1.757h4.391v-7.026Z" transform="translate(-215.133 -129.678)" fill="#6c63ff"/>
  <path id="パス_88" data-name="パス 88" d="M499.228,395.062v1.756h1.757v3.513h-1.757v1.756h4.391v-7.025Z" transform="translate(-215.133 -170.244)" fill="#6c63ff"/>
  <path id="パス_89" data-name="パス 89" d="M391.2,373.457v1.756h1.756v3.513H391.2v1.756h4.391v-7.025Z" transform="translate(-168.582 -160.934)" fill="#6c63ff"/>
  <path id="パス_90" data-name="パス 90" d="M391.2,393.519v1.756h1.756v3.513H391.2v1.756h4.391v-7.025Z" transform="translate(-168.582 -169.579)" fill="#6c63ff"/>
  <path id="パス_91" data-name="パス 91" d="M351.08,160.494v1.756h1.757v3.513H351.08v1.757h4.391v-7.026Z" transform="translate(-151.291 -69.162)" fill="#6c63ff"/>
  <path id="パス_92" data-name="パス 92" d="M351.08,239.2v1.756h1.757v3.513H351.08v1.756h4.391V239.2Z" transform="translate(-151.291 -103.078)" fill="#6c63ff"/>
  <path id="パス_93" data-name="パス 93" d="M351.08,259.259v1.757h1.757v3.513H351.08v1.756h4.391v-7.026Z" transform="translate(-151.291 -111.723)" fill="#6c63ff"/>
  <path id="パス_94" data-name="パス 94" d="M351.08,299.383v1.756h1.757v3.513H351.08v1.756h4.391v-7.025Z" transform="translate(-151.291 -129.013)" fill="#6c63ff"/>
  <path id="パス_95" data-name="パス 95" d="M351.08,356.481v1.757h1.757v3.513H351.08v1.756h4.391v-7.026Z" transform="translate(-151.291 -153.618)" fill="#6c63ff"/>
  <path id="パス_96" data-name="パス 96" d="M351.08,373.457v1.756h1.757v3.513H351.08v1.756h4.391v-7.025Z" transform="translate(-151.291 -160.934)" fill="#6c63ff"/>
  <rect id="長方形_111" data-name="長方形 111" width="4.391" height="7.026" transform="translate(245.455 37.762)" fill="#6c63ff"/>
  <rect id="長方形_112" data-name="長方形 112" width="4.391" height="7.026" transform="translate(245.455 49.179)" fill="#6c63ff"/>
  <rect id="長方形_113" data-name="長方形 113" width="6.147" height="0.878" transform="translate(243.699 61.474)" fill="#6c63ff"/>
  <rect id="長方形_114" data-name="長方形 114" width="6.147" height="0.878" transform="translate(243.699 117.678)" fill="#6c63ff"/>
  <rect id="長方形_115" data-name="長方形 115" width="6.147" height="0.878" transform="translate(243.699 127.338)" fill="#6c63ff"/>
  <path id="パス_97" data-name="パス 97" d="M431.327,121.914v1.756h1.757v3.513h-1.757v1.756h4.391v-7.025Z" transform="translate(-185.872 -52.536)" fill="#6c63ff"/>
  <path id="パス_98" data-name="パス 98" d="M431.327,160.494v1.756h1.757v3.513h-1.757v1.757h4.391v-7.026Z" transform="translate(-185.872 -69.162)" fill="#6c63ff"/>
  <path id="パス_99" data-name="パス 99" d="M431.327,239.2v1.756h1.757v3.513h-1.757v1.756h4.391V239.2Z" transform="translate(-185.872 -103.078)" fill="#6c63ff"/>
  <rect id="長方形_116" data-name="長方形 116" width="4.391" height="7.026" transform="translate(295.512 114.165)" fill="#6c63ff"/>
  <rect id="長方形_117" data-name="長方形 117" width="4.391" height="7.026" transform="translate(295.512 125.582)" fill="#6c63ff"/>
  <rect id="長方形_118" data-name="長方形 118" width="6.147" height="0.878" transform="translate(293.756 137.876)" fill="#6c63ff"/>
  <rect id="長方形_119" data-name="長方形 119" width="6.147" height="0.878" transform="translate(293.756 194.081)" fill="#6c63ff"/>
  <rect id="長方形_120" data-name="長方形 120" width="6.147" height="0.878" transform="translate(293.756 203.741)" fill="#6c63ff"/>
  <path id="パス_100" data-name="パス 100" d="M519.29,256.173v1.756h1.757v3.513H519.29V263.2h4.391v-7.026Z" transform="translate(-223.778 -110.393)" fill="#6c63ff"/>
  <path id="パス_101" data-name="パス 101" d="M519.29,294.753v1.757h1.757v3.512H519.29v1.757h4.391v-7.026Z" transform="translate(-223.778 -127.018)" fill="#6c63ff"/>
  <path id="パス_102" data-name="パス 102" d="M519.29,373.457v1.756h1.757v3.513H519.29v1.756h4.391v-7.025Z" transform="translate(-223.778 -160.934)" fill="#6c63ff"/>
  <rect id="長方形_121" data-name="長方形 121" width="4.391" height="7.026" transform="translate(309.563 37.762)" fill="#6c63ff"/>
  <rect id="長方形_122" data-name="長方形 122" width="4.391" height="7.026" transform="translate(324.493 36.006)" fill="#6c63ff"/>
  <rect id="長方形_123" data-name="長方形 123" width="4.391" height="7.026" transform="translate(332.396 36.006)" fill="#6c63ff"/>
  <rect id="長方形_124" data-name="長方形 124" width="4.391" height="7.026" transform="translate(332.396 57.083)" fill="#6c63ff"/>
  <rect id="長方形_125" data-name="長方形 125" width="4.391" height="7.026" transform="translate(341.178 46.544)" fill="#6c63ff"/>
  <rect id="長方形_126" data-name="長方形 126" width="4.391" height="7.026" transform="translate(341.178 57.961)" fill="#6c63ff"/>
  <rect id="長方形_127" data-name="長方形 127" width="4.391" height="7.026" transform="translate(332.396 79.916)" fill="#6c63ff"/>
  <rect id="長方形_128" data-name="長方形 128" width="4.391" height="7.026" transform="translate(341.178 91.332)" fill="#6c63ff"/>
  <rect id="長方形_129" data-name="長方形 129" width="4.391" height="7.026" transform="translate(332.396 134.364)" fill="#6c63ff"/>
  <rect id="長方形_130" data-name="長方形 130" width="4.391" height="7.026" transform="translate(324.493 91.332)" fill="#6c63ff"/>
  <rect id="長方形_131" data-name="長方形 131" width="4.391" height="7.026" transform="translate(309.563 49.179)" fill="#6c63ff"/>
  <rect id="長方形_132" data-name="長方形 132" width="4.391" height="7.026" transform="translate(309.563 158.953)" fill="#6c63ff"/>
  <rect id="長方形_133" data-name="長方形 133" width="4.391" height="7.026" transform="translate(309.563 181.786)" fill="#6c63ff"/>
  <rect id="長方形_134" data-name="長方形 134" width="4.391" height="7.026" transform="translate(309.563 193.203)" fill="#6c63ff"/>
  <rect id="長方形_135" data-name="長方形 135" width="6.147" height="0.878" transform="translate(307.807 61.474)" fill="#6c63ff"/>
  <rect id="長方形_136" data-name="長方形 136" width="6.147" height="0.878" transform="translate(331.518 72.012)" fill="#6c63ff"/>
  <rect id="長方形_137" data-name="長方形 137" width="6.147" height="0.878" transform="translate(307.807 117.678)" fill="#6c63ff"/>
  <rect id="長方形_138" data-name="長方形 138" width="6.147" height="0.878" transform="translate(307.807 127.338)" fill="#6c63ff"/>
  <rect id="長方形_139" data-name="長方形 139" width="6.147" height="0.878" transform="translate(331.518 183.543)" fill="#6c63ff"/>
  <rect id="長方形_140" data-name="長方形 140" width="6.147" height="0.878" transform="translate(324.493 204.619)" fill="#6c63ff"/>
  <path id="パス_103" data-name="パス 103" d="M543.981,121.914v1.756h1.757v3.513h-1.757v1.756h4.392v-7.025Z" transform="translate(-234.418 -52.536)" fill="#6c63ff"/>
  <path id="パス_104" data-name="パス 104" d="M570.216,100.309v1.756h1.756v3.513h-1.756v1.756h4.391v-7.025Z" transform="translate(-245.723 -43.226)" fill="#6c63ff"/>
  <path id="パス_105" data-name="パス 105" d="M599.537,120.37v1.757h1.756v3.513h-1.756V127.4h4.391V120.37Z" transform="translate(-258.359 -51.871)" fill="#6c63ff"/>
  <path id="パス_106" data-name="パス 106" d="M599.537,180.556v1.756h1.756v3.513h-1.756v1.756h4.391v-7.025Z" transform="translate(-258.359 -77.807)" fill="#6c63ff"/>
  <path id="パス_107" data-name="パス 107" d="M599.537,200.617v1.757h1.756v3.513h-1.756v1.756h4.391v-7.026Z" transform="translate(-258.359 -86.452)" fill="#6c63ff"/>
  <path id="パス_108" data-name="パス 108" d="M599.537,138.889v1.756h1.756v3.513h-1.756v1.757h4.391v-7.026Z" transform="translate(-258.359 -59.851)" fill="#6c63ff"/>
  <path id="パス_109" data-name="パス 109" d="M584.1,81.79v1.757h1.756v3.512H584.1v1.757H588.5V81.79Z" transform="translate(-251.709 -35.246)" fill="#6c63ff"/>
  <rect id="長方形_141" data-name="長方形 141" width="4.391" height="7.026" transform="translate(332.396 102.749)" fill="#6c63ff"/>
  <rect id="長方形_142" data-name="長方形 142" width="4.391" height="7.026" transform="translate(332.396 123.825)" fill="#6c63ff"/>
  <path id="パス_110" data-name="パス 110" d="M584.1,199.074v1.756h1.756v3.513H584.1V206.1H588.5v-7.026Z" transform="translate(-251.709 -85.787)" fill="#6c63ff"/>
  <path id="パス_111" data-name="パス 111" d="M570.216,120.37v1.757h1.756v3.513h-1.756V127.4h4.391V120.37Z" transform="translate(-245.723 -51.871)" fill="#6c63ff"/>
  <path id="パス_112" data-name="パス 112" d="M570.216,140.432v1.757h1.756V145.7h-1.756v1.757h4.391v-7.026Z" transform="translate(-245.723 -60.516)" fill="#6c63ff"/>
  <rect id="長方形_143" data-name="長方形 143" width="4.391" height="7.026" transform="translate(324.493 114.165)" fill="#6c63ff"/>
  <path id="パス_113" data-name="パス 113" d="M570.216,180.556v1.756h1.756v3.513h-1.756v1.756h4.391v-7.025Z" transform="translate(-245.723 -77.807)" fill="#6c63ff"/>
  <rect id="長方形_144" data-name="長方形 144" width="4.391" height="7.026" transform="translate(324.493 136.998)" fill="#6c63ff"/>
  <path id="パス_114" data-name="パス 114" d="M570.216,220.679v1.756h1.756v3.513h-1.756V227.7h4.391v-7.026Z" transform="translate(-245.723 -95.097)" fill="#6c63ff"/>
  <rect id="長方形_145" data-name="長方形 145" width="4.391" height="7.026" transform="translate(324.493 159.831)" fill="#6c63ff"/>
  <rect id="長方形_146" data-name="長方形 146" width="4.391" height="7.026" transform="translate(332.396 158.075)" fill="#6c63ff"/>
  <path id="パス_115" data-name="パス 115" d="M570.216,260.8v1.757h1.756v3.513h-1.756v1.756h4.391V260.8Z" transform="translate(-245.723 -112.387)" fill="#6c63ff"/>
  <path id="パス_116" data-name="パス 116" d="M599.537,260.8v1.757h1.756v3.513h-1.756v1.756h4.391V260.8Z" transform="translate(-258.359 -112.387)" fill="#6c63ff"/>
  <rect id="長方形_147" data-name="長方形 147" width="4.391" height="7.026" transform="translate(385.966 46.544)" fill="#6c63ff"/>
  <rect id="長方形_148" data-name="長方形 148" width="4.391" height="7.026" transform="translate(385.966 57.961)" fill="#6c63ff"/>
  <rect id="長方形_149" data-name="長方形 149" width="4.391" height="7.026" transform="translate(385.966 91.332)" fill="#6c63ff"/>
  <path id="パス_117" data-name="パス 117" d="M678.241,120.37v1.757H680v3.513h-1.756V127.4h4.391V120.37Z" transform="translate(-292.275 -51.871)" fill="#6c63ff"/>
  <path id="パス_118" data-name="パス 118" d="M678.241,180.556v1.756H680v3.513h-1.756v1.756h4.391v-7.025Z" transform="translate(-292.275 -77.807)" fill="#6c63ff"/>
  <path id="パス_119" data-name="パス 119" d="M678.241,200.617v1.757H680v3.513h-1.756v1.756h4.391v-7.026Z" transform="translate(-292.275 -86.452)" fill="#6c63ff"/>
  <path id="パス_120" data-name="パス 120" d="M678.241,138.889v1.756H680v3.513h-1.756v1.757h4.391v-7.026Z" transform="translate(-292.275 -59.851)" fill="#6c63ff"/>
  <path id="パス_121" data-name="パス 121" d="M678.241,260.8v1.757H680v3.513h-1.756v1.756h4.391V260.8Z" transform="translate(-292.275 -112.387)" fill="#6c63ff"/>
  <rect id="長方形_150" data-name="長方形 150" width="4.391" height="7.026" transform="translate(324.493 182.664)" fill="#6c63ff"/>
  <rect id="長方形_151" data-name="長方形 151" width="4.391" height="7.026" transform="translate(332.396 169.491)" fill="#6c63ff"/>
  <rect id="長方形_152" data-name="長方形 152" width="4.391" height="7.026" transform="translate(324.493 212.523)" fill="#6c63ff"/>
  <rect id="長方形_153" data-name="長方形 153" width="4.391" height="7.026" transform="translate(332.396 191.446)" fill="#6c63ff"/>
  <path id="パス_122" data-name="パス 122" d="M570.216,300.926v1.756h1.756V306.2h-1.756v1.757h4.391v-7.026Z" transform="translate(-245.723 -129.678)" fill="#6c63ff"/>
  <path id="パス_123" data-name="パス 123" d="M570.216,395.062v1.756h1.756v3.513h-1.756v1.756h4.391v-7.025Z" transform="translate(-245.723 -170.244)" fill="#6c63ff"/>
  <rect id="長方形_154" data-name="長方形 154" width="4.391" height="7.026" transform="translate(372.793 36.006)" fill="#6c63ff"/>
  <rect id="長方形_155" data-name="長方形 155" width="4.391" height="7.026" transform="translate(372.793 91.332)" fill="#6c63ff"/>
  <rect id="長方形_156" data-name="長方形 156" width="6.147" height="0.878" transform="translate(372.793 204.619)" fill="#6c63ff"/>
  <path id="パス_124" data-name="パス 124" d="M655.093,100.309v1.756h1.756v3.513h-1.756v1.756h4.391v-7.025Z" transform="translate(-282.299 -43.226)" fill="#6c63ff"/>
  <path id="パス_125" data-name="パス 125" d="M655.093,120.37v1.757h1.756v3.513h-1.756V127.4h4.391V120.37Z" transform="translate(-282.299 -51.871)" fill="#6c63ff"/>
  <path id="パス_126" data-name="パス 126" d="M655.093,140.432v1.757h1.756V145.7h-1.756v1.757h4.391v-7.026Z" transform="translate(-282.299 -60.516)" fill="#6c63ff"/>
  <rect id="長方形_157" data-name="長方形 157" width="4.391" height="7.026" transform="translate(372.793 114.165)" fill="#6c63ff"/>
  <path id="パス_127" data-name="パス 127" d="M655.093,180.556v1.756h1.756v3.513h-1.756v1.756h4.391v-7.025Z" transform="translate(-282.299 -77.807)" fill="#6c63ff"/>
  <rect id="長方形_158" data-name="長方形 158" width="4.391" height="7.026" transform="translate(372.793 136.998)" fill="#6c63ff"/>
  <path id="パス_128" data-name="パス 128" d="M655.093,220.679v1.756h1.756v3.513h-1.756V227.7h4.391v-7.026Z" transform="translate(-282.299 -95.097)" fill="#6c63ff"/>
  <rect id="長方形_159" data-name="長方形 159" width="4.391" height="7.026" transform="translate(372.793 159.831)" fill="#6c63ff"/>
  <path id="パス_129" data-name="パス 129" d="M655.093,260.8v1.757h1.756v3.513h-1.756v1.756h4.391V260.8Z" transform="translate(-282.299 -112.387)" fill="#6c63ff"/>
  <rect id="長方形_160" data-name="長方形 160" width="4.391" height="7.026" transform="translate(372.793 182.664)" fill="#6c63ff"/>
  <rect id="長方形_161" data-name="長方形 161" width="4.391" height="7.026" transform="translate(372.793 212.523)" fill="#6c63ff"/>
  <path id="パス_130" data-name="パス 130" d="M655.093,300.926v1.756h1.756V306.2h-1.756v1.757h4.391v-7.026Z" transform="translate(-282.299 -129.678)" fill="#6c63ff"/>
  <path id="パス_131" data-name="パス 131" d="M655.093,395.062v1.756h1.756v3.513h-1.756v1.756h4.391v-7.025Z" transform="translate(-282.299 -170.244)" fill="#6c63ff"/>
  <rect id="長方形_162" data-name="長方形 162" width="4.391" height="7.026" transform="translate(393.87 36.006)" fill="#6c63ff"/>
  <rect id="長方形_163" data-name="長方形 163" width="4.391" height="7.026" transform="translate(393.87 91.332)" fill="#6c63ff"/>
  <rect id="長方形_164" data-name="長方形 164" width="6.147" height="0.878" transform="translate(393.87 204.619)" fill="#6c63ff"/>
  <path id="パス_132" data-name="パス 132" d="M692.13,100.309v1.756h1.756v3.513H692.13v1.756h4.391v-7.025Z" transform="translate(-298.26 -43.226)" fill="#6c63ff"/>
  <path id="パス_133" data-name="パス 133" d="M692.13,120.37v1.757h1.756v3.513H692.13V127.4h4.391V120.37Z" transform="translate(-298.26 -51.871)" fill="#6c63ff"/>
  <path id="パス_134" data-name="パス 134" d="M692.13,140.432v1.757h1.756V145.7H692.13v1.757h4.391v-7.026Z" transform="translate(-298.26 -60.516)" fill="#6c63ff"/>
  <rect id="長方形_165" data-name="長方形 165" width="4.391" height="7.026" transform="translate(393.87 114.165)" fill="#6c63ff"/>
  <path id="パス_135" data-name="パス 135" d="M692.13,180.556v1.756h1.756v3.513H692.13v1.756h4.391v-7.025Z" transform="translate(-298.26 -77.807)" fill="#6c63ff"/>
  <rect id="長方形_166" data-name="長方形 166" width="4.391" height="7.026" transform="translate(393.87 136.998)" fill="#6c63ff"/>
  <path id="パス_136" data-name="パス 136" d="M692.13,220.679v1.756h1.756v3.513H692.13V227.7h4.391v-7.026Z" transform="translate(-298.26 -95.097)" fill="#6c63ff"/>
  <rect id="長方形_167" data-name="長方形 167" width="4.391" height="7.026" transform="translate(393.87 159.831)" fill="#6c63ff"/>
  <path id="パス_137" data-name="パス 137" d="M692.13,260.8v1.757h1.756v3.513H692.13v1.756h4.391V260.8Z" transform="translate(-298.26 -112.387)" fill="#6c63ff"/>
  <rect id="長方形_168" data-name="長方形 168" width="4.391" height="7.026" transform="translate(393.87 182.664)" fill="#6c63ff"/>
  <rect id="長方形_169" data-name="長方形 169" width="4.391" height="7.026" transform="translate(393.87 212.523)" fill="#6c63ff"/>
  <path id="パス_138" data-name="パス 138" d="M692.13,300.926v1.756h1.756V306.2H692.13v1.757h4.391v-7.026Z" transform="translate(-298.26 -129.678)" fill="#6c63ff"/>
  <path id="パス_139" data-name="パス 139" d="M692.13,395.062v1.756h1.756v3.513H692.13v1.756h4.391v-7.025Z" transform="translate(-298.26 -170.244)" fill="#6c63ff"/>
  <path id="パス_140" data-name="パス 140" d="M584.1,373.457v1.756h1.756v3.513H584.1v1.756H588.5v-7.025Z" transform="translate(-251.709 -160.934)" fill="#6c63ff"/>
  <path id="パス_141" data-name="パス 141" d="M584.1,393.519v1.756h1.756v3.513H584.1v1.756H588.5v-7.025Z" transform="translate(-251.709 -169.579)" fill="#6c63ff"/>
  <path id="パス_142" data-name="パス 142" d="M543.981,160.494v1.756h1.757v3.513h-1.757v1.757h4.392v-7.026Z" transform="translate(-234.418 -69.162)" fill="#6c63ff"/>
  <path id="パス_143" data-name="パス 143" d="M543.981,239.2v1.756h1.757v3.513h-1.757v1.756h4.392V239.2Z" transform="translate(-234.418 -103.078)" fill="#6c63ff"/>
  <path id="パス_144" data-name="パス 144" d="M543.981,259.259v1.757h1.757v3.513h-1.757v1.756h4.392v-7.026Z" transform="translate(-234.418 -111.723)" fill="#6c63ff"/>
  <path id="パス_145" data-name="パス 145" d="M543.981,299.383v1.756h1.757v3.513h-1.757v1.756h4.392v-7.025Z" transform="translate(-234.418 -129.013)" fill="#6c63ff"/>
  <path id="パス_146" data-name="パス 146" d="M543.981,356.481v1.757h1.757v3.513h-1.757v1.756h4.392v-7.026Z" transform="translate(-234.418 -153.618)" fill="#6c63ff"/>
  <path id="パス_147" data-name="パス 147" d="M543.981,373.457v1.756h1.757v3.513h-1.757v1.756h4.392v-7.025Z" transform="translate(-234.418 -160.934)" fill="#6c63ff"/>
  <rect id="長方形_170" data-name="長方形 170" width="4.391" height="7.026" transform="translate(355.229 37.762)" fill="#6c63ff"/>
  <rect id="長方形_171" data-name="長方形 171" width="4.391" height="7.026" transform="translate(355.229 49.179)" fill="#6c63ff"/>
  <rect id="長方形_172" data-name="長方形 172" width="6.147" height="0.878" transform="translate(353.473 61.474)" fill="#6c63ff"/>
  <rect id="長方形_173" data-name="長方形 173" width="6.147" height="0.878" transform="translate(353.473 117.678)" fill="#6c63ff"/>
  <rect id="長方形_174" data-name="長方形 174" width="6.147" height="0.878" transform="translate(353.473 127.338)" fill="#6c63ff"/>
  <path id="パス_148" data-name="パス 148" d="M624.228,121.914v1.756h1.757v3.513h-1.757v1.756h4.391v-7.025Z" transform="translate(-268.999 -52.536)" fill="#6c63ff"/>
  <path id="パス_149" data-name="パス 149" d="M624.228,160.494v1.756h1.757v3.513h-1.757v1.757h4.391v-7.026Z" transform="translate(-268.999 -69.162)" fill="#6c63ff"/>
  <path id="パス_150" data-name="パス 150" d="M624.228,239.2v1.756h1.757v3.513h-1.757v1.756h4.391V239.2Z" transform="translate(-268.999 -103.078)" fill="#6c63ff"/>
  <rect id="長方形_175" data-name="長方形 175" width="4.391" height="7.026" transform="translate(405.286 114.165)" fill="#6c63ff"/>
  <rect id="長方形_176" data-name="長方形 176" width="4.391" height="7.026" transform="translate(405.286 125.582)" fill="#6c63ff"/>
  <rect id="長方形_177" data-name="長方形 177" width="6.147" height="0.878" transform="translate(403.53 137.876)" fill="#6c63ff"/>
  <rect id="長方形_178" data-name="長方形 178" width="6.147" height="0.878" transform="translate(403.53 194.081)" fill="#6c63ff"/>
  <rect id="長方形_179" data-name="長方形 179" width="6.147" height="0.878" transform="translate(403.53 203.741)" fill="#6c63ff"/>
  <path id="パス_151" data-name="パス 151" d="M712.191,256.173v1.756h1.757v3.513h-1.757V263.2h4.391v-7.026Z" transform="translate(-306.905 -110.393)" fill="#6c63ff"/>
  <path id="パス_152" data-name="パス 152" d="M712.191,294.753v1.757h1.757v3.512h-1.757v1.757h4.391v-7.026Z" transform="translate(-306.905 -127.018)" fill="#6c63ff"/>
  <path id="パス_153" data-name="パス 153" d="M712.191,373.457v1.756h1.757v3.513h-1.757v1.756h4.391v-7.025Z" transform="translate(-306.905 -160.934)" fill="#6c63ff"/>
  <rect id="長方形_180" data-name="長方形 180" width="470.965" height="1.454" transform="translate(122.028 402.067)" fill="#2f2e41"/>
  <path id="パス_154" data-name="パス 154" d="M417.94,499.8v29.592l3.983,18.21s-.569,11.381,0,14.8-.569,9.105-3.983,9.105-5.122,8.536-5.122,8.536-1.138,3.414-3.983,3.983-2.845,0-2.845,0l-2.276,5.691-47.233,31.3,9.105,22.763s14.227-5.122,15.365-6.829,10.812,2.276,10.812-1.707,1.707-14.227,5.122-14.8,31.868-13.658,31.868-13.658,14.8-16.5,15.934-22.763,6.26-23.9,6.26-23.9l14.227,23.9v47.8L462.9,657.428l25.039-3.414s-2.276-15.934,0-18.21,5.691-29.592,3.414-33.006,1.138-18.779,0-21.056-.569-18.779-3.414-23.332-19.917-51.216-19.917-51.216Z" transform="translate(-198.564 -269.698)" fill="#2f2e41"/>
  <path id="パス_155" data-name="パス 155" d="M545.844,773.072S537.308,787.3,543,789.005s16.5,0,17.641,0,21.625.569,21.625.569,13.658-2.845,13.658-6.829-8.536-3.984-11.381-4.553-20.487-7.4-20.487-7.4Z" transform="translate(-278.097 -386.48)" fill="#2f2e41"/>
  <path id="パス_156" data-name="パス 156" d="M349.128,713.626s-16.448-2.178-15.752,3.722,6.559,15.143,7.012,16.188c.306.707,3.9,9.662,6.189,15.368a33.276,33.276,0,0,0,7.3,11.183c2.237,2.236,4.675,4.029,6.275,3.336,3.655-1.583.263-9.416-.346-12.253s-1.354-21.739-1.354-21.739Z" transform="translate(-188.598 -361.675)" fill="#2f2e41"/>
  <path id="パス_157" data-name="パス 157" d="M509.239,286.39l18.21-42.111s-1.707-3.983-5.691-3.414c0,0-5.406-13.942-15.649-13.942,0,0-15.365-8.536-19.917,0,0,0-9.674,8.536-9.105,16.5s1.138,13.658,1.138,13.658-9.105,1.138-7.4,5.691,2.276,4.553,0,6.26l-2.276,1.707s-47.233,42.68-21.056,105.278l2.276,9.674V394.8s57.476.569,57.476,0-1.138-3.984,1.138-6.26a8.887,8.887,0,0,0,2.276-5.691s-2.276-11.381-1.138-14.8,1.707-18.21-.569-21.625-1.138-30.73-1.138-30.73l5.122-9.674-1.707-5.691-1.707-5.691Z" transform="translate(-234.379 -150.474)" fill="#8985a8"/>
  <path id="パス_158" data-name="パス 158" d="M520.915,439.129s-6.829-18.779-6.26-22.194-1.138-10.243-1.138-10.243L511.24,360.6s9.674-40.973-11.95-47.8c0,0-5.472,2.388-9.955,10.071-4.434,1.975-9.813,6.972-11.1,19.521-2.276,22.194,7.967,79.1,13.089,88.775s8.536,16.5,8.536,16.5l5.353-2.379c.221.438.338.672.338.672Z" transform="translate(-250.891 -189.114)" opacity="0.1"/>
  <circle id="楕円形_1" data-name="楕円形 1" cx="1.707" cy="1.707" r="1.707" transform="translate(271.446 127.38)" fill="#f2f2f2"/>
  <rect id="長方形_181" data-name="長方形 181" width="1.138" height="26.746" transform="translate(272.584 129.087)" fill="#3f3d56"/>
  <path id="パス_159" data-name="パス 159" d="M522.98,534.848l4.553,9.674s10.243-3.414,10.243-5.122-4.553-9.105-4.553-9.105Z" transform="translate(-270.314 -282.841)" fill="#ffb8b8"/>
  <path id="パス_160" data-name="パス 160" d="M499.6,312.8s-13.089,5.691-15.365,27.884,7.967,79.1,13.089,88.775,8.536,16.5,8.536,16.5l15.365-6.829s-6.829-18.779-6.26-22.194-1.138-10.243-1.138-10.243L511.55,360.6S521.224,319.624,499.6,312.8Z" transform="translate(-253.477 -189.114)" fill="#8985a8"/>
</svg>
