<svg xmlns="http://www.w3.org/2000/svg" width="263.423" height="34.618" viewBox="0 0 263.423 34.618">
  <g id="グループ_2" data-name="グループ 2" transform="translate(-148.181 -496.423)">
    <path id="Icon_feather-github" data-name="Icon feather-github" d="M13.5,28.5C6,30.75,6,24.75,3,24m21,9V27.195a5.055,5.055,0,0,0-1.41-3.915c4.71-.525,9.66-2.31,9.66-10.5A8.159,8.159,0,0,0,30,7.156,7.6,7.6,0,0,0,29.865,1.5S28.095.975,24,3.72a20.07,20.07,0,0,0-10.5,0C9.4.975,7.635,1.5,7.635,1.5A7.6,7.6,0,0,0,7.5,7.155a8.16,8.16,0,0,0-2.25,5.67c0,8.13,4.95,9.915,9.66,10.5A5.055,5.055,0,0,0,13.5,27.2V33" transform="translate(147 496.54)" fill="none" stroke="#fff" stroke-linecap="round" stroke-linejoin="round" stroke-width="3"/>
    <path id="Icon_feather-twitter" data-name="Icon feather-twitter" d="M34.5,4.5a16.35,16.35,0,0,1-4.71,2.3A6.72,6.72,0,0,0,18,11.295v1.5A15.99,15.99,0,0,1,4.5,6s-6,13.5,7.5,19.5a17.46,17.46,0,0,1-10.5,3c13.5,7.5,30,0,30-17.25A6.75,6.75,0,0,0,31.38,10,11.58,11.58,0,0,0,34.5,4.5Z" transform="translate(225.566 495.828)" fill="none" stroke="#fff" stroke-linecap="square" stroke-linejoin="round" stroke-width="3"/>
    <g id="Icon_feather-instagram" data-name="Icon feather-instagram" transform="translate(298.885 495.77)">
      <path id="パス_164" data-name="パス 164" d="M10.5,3h15A7.5,7.5,0,0,1,33,10.5v15A7.5,7.5,0,0,1,25.5,33h-15A7.5,7.5,0,0,1,3,25.5v-15A7.5,7.5,0,0,1,10.5,3Z" fill="none" stroke="#fff" stroke-linecap="round" stroke-linejoin="round" stroke-width="3"/>
      <path id="パス_165" data-name="パス 165" d="M24,17.055A6,6,0,1,1,18.945,12,6,6,0,0,1,24,17.055Z" fill="none" stroke="#fff" stroke-linecap="round" stroke-linejoin="round" stroke-width="3"/>
      <path id="パス_166" data-name="パス 166" d="M26.25,9.75h0" fill="none" stroke="#fff" stroke-linecap="round" stroke-linejoin="round" stroke-width="3"/>
    </g>
    <g id="Speaker-Deck-Home" transform="translate(332.703 476.926)">
      <path id="mark" d="M56.831,39.8H48.4a7.4,7.4,0,0,1,0-14.8h9.834a2.961,2.961,0,0,1,0,5.922H48.251a1.48,1.48,0,0,0,0,2.961H56.68a7.4,7.4,0,0,1,0,14.8H43.961a2.961,2.961,0,0,1,0-5.922h12.87a1.48,1.48,0,0,0,0-2.961Zm6.23,8.883a8.9,8.9,0,0,0,3.783-5.922h4.778a1.468,1.468,0,0,0,1.456-1.48V32.4a1.468,1.468,0,0,0-1.456-1.48H62.942a4.5,4.5,0,0,0,0-5.922H73.079A5.873,5.873,0,0,1,78.9,30.922V42.766a5.873,5.873,0,0,1-5.822,5.922Z" transform="translate(0)" fill="#fff" fill-rule="evenodd"/>
    </g>
  </g>
</svg>
