<svg xmlns="http://www.w3.org/2000/svg" xmlns:xlink="http://www.w3.org/1999/xlink" width="699.007" height="518.219" viewBox="0 0 699.007 518.219">
  <defs>
    <linearGradient id="linear-gradient" x1="3.455" y1="1" x2="3.455" gradientUnits="objectBoundingBox">
      <stop offset="0" stop-color="gray" stop-opacity="0.251"/>
      <stop offset="0.54" stop-color="gray" stop-opacity="0.122"/>
      <stop offset="1" stop-color="gray" stop-opacity="0.102"/>
    </linearGradient>
  </defs>
  <g id="グループ_5" data-name="グループ 5" transform="translate(0 -0.01)">
    <path id="パス_167" data-name="パス 167" d="M362.232,56.706C334.567,45.46,305.339,36.071,275.5,37.25c-43.87,1.726-85.944,28.117-106.6,66.859-17.5,32.824-19.663,71.3-27.2,107.722-9.3,44.886-27.087,87.526-46.091,129.236-10.2,22.405-20.975,45.294-22.644,69.859-2.328,34.091,13.97,68.07,39.539,90.752s59.509,34.65,93.582,37.261c18.131,1.387,37.079.1,53.189-8.341,17.033-8.924,29.46-25.06,46.562-33.859,15.853-8.159,34.4-9.307,52.2-8.24a233.888,233.888,0,0,1,68.145,14.485c24.878,9.345,48.012,22.87,72.833,32.347s52.556,14.755,77.93,6.853c23.811-7.425,42.677-25.456,59.622-43.719a764.948,764.948,0,0,0,76.047-96.212c15.32-22.945,29.579-47.158,36.357-73.907,12.948-51.137-4.876-108.833-44.409-143.721-32.736-28.951-76.693-41.5-119.722-49.148-39.238-6.948-84.607-7.381-120.726-25.493C429.674,92.712,398.331,71.392,362.232,56.706Z" transform="translate(-54.141 -37.14)" fill="#6c63ff" opacity="0.1"/>
    <path id="パス_168" data-name="パス 168" d="M933.866,575.408l1.048,1.054.471-1.814-.5-1.789H933.59Z" transform="translate(-347.665 -213.327)" fill="#464a5f"/>
    <path id="パス_169" data-name="パス 169" d="M933.866,575.408l1.048,1.054.471-1.814-.5-1.789H933.59Z" transform="translate(-347.665 -213.327)" opacity="0.1"/>
    <path id="パス_170" data-name="パス 170" d="M933.222,576.92l1.017,1.086-1.017,1.192-1.092-.408-.27-.527Z" transform="translate(-347.021 -214.839)" fill="#9c9ca1"/>
    <path id="パス_171" data-name="パス 171" d="M933.222,576.92l1.017,1.086-1.017,1.192-1.092-.408-.27-.527Z" transform="translate(-347.021 -214.839)" opacity="0.1"/>
    <path id="パス_172" data-name="パス 172" d="M599.289,310.28,484.513,425.056a11.033,11.033,0,0,0-.031,15.571l175.93,177.329a11.033,11.033,0,0,0,15.577.082l116.49-114.82Z" transform="translate(-206.277 -138.853)" fill="#9c9ca1"/>
    <path id="パス_173" data-name="パス 173" d="M599.289,310.28,484.513,425.056a11.033,11.033,0,0,0-.031,15.571l175.93,177.329a11.033,11.033,0,0,0,15.577.082l116.49-114.82Z" transform="translate(-206.277 -138.853)" opacity="0.1"/>
    <path id="パス_174" data-name="パス 174" d="M599.289,306.65,484.513,421.426A11.033,11.033,0,0,0,484.481,437L660.411,614.32a11.033,11.033,0,0,0,15.577.088l116.49-114.852Z" transform="translate(-206.277 -137.501)" fill="#9c9ca1"/>
    <path id="パス_175" data-name="パス 175" d="M682.261,176.9,671.73,256.815,864.919,449.747l11.1-81.237a11.749,11.749,0,0,0-3.414-10L686.2,175.528a2.335,2.335,0,0,0-3.941,1.368Z" transform="translate(-277.199 -88.426)" fill="#464a5f"/>
    <path id="パス_176" data-name="パス 176" d="M682.261,176.9,671.73,256.815,864.919,449.747l11.1-81.237a11.749,11.749,0,0,0-3.414-10L686.2,175.528a2.335,2.335,0,0,0-3.941,1.368Z" transform="translate(-277.199 -88.426)" opacity="0.1"/>
    <path id="パス_177" data-name="パス 177" d="M679.841,178.106,669.31,258.026,862.5,450.957l11.1-81.237a11.748,11.748,0,0,0-3.414-10l-186.4-182.984a2.335,2.335,0,0,0-3.941,1.368Z" transform="translate(-276.298 -88.876)" fill="#464a5f"/>
    <g id="グループ_3" data-name="グループ 3" transform="translate(345.669 205.229)" opacity="0.1">
      <path id="パス_178" data-name="パス 178" d="M665.6,364.786l-6.985,7.048a2.215,2.215,0,0,0,0,3.138l7.079,7.261a2.222,2.222,0,0,0,3.138.063l6.954-6.565a2.216,2.216,0,0,0,.113-3.107l-7.079-7.745a2.215,2.215,0,0,0-3.22-.094Z" transform="translate(-617.742 -364.138)"/>
      <path id="パス_179" data-name="パス 179" d="M686.363,385.523l-6.96,7.042a2.215,2.215,0,0,0,0,3.107l7.079,7.261a2.215,2.215,0,0,0,3.138.063l6.954-6.558a2.228,2.228,0,0,0,.113-3.138l-7.1-7.726a2.215,2.215,0,0,0-3.22-.05Z" transform="translate(-625.489 -371.853)"/>
      <path id="パス_180" data-name="パス 180" d="M708.144,407.287l-6.96,7.048a2.222,2.222,0,0,0,0,3.107l7.086,7.261a2.222,2.222,0,0,0,3.138.063l6.954-6.565a2.215,2.215,0,0,0,.113-3.107L711.4,407.35a2.215,2.215,0,0,0-3.251-.063Z" transform="translate(-633.601 -379.954)"/>
      <path id="パス_181" data-name="パス 181" d="M730.168,429.328l-6.954,7.079a2.222,2.222,0,0,0,0,3.107l7.086,7.261a2.222,2.222,0,0,0,3.138.063l6.948-6.565a2.209,2.209,0,0,0,.119-3.107l-7.117-7.776a2.222,2.222,0,0,0-3.22-.063Z" transform="translate(-641.805 -388.169)"/>
      <path id="パス_182" data-name="パス 182" d="M752.189,451.359l-6.954,7.061a2.222,2.222,0,0,0,0,3.138l7.086,7.261a2.222,2.222,0,0,0,3.138.063l6.948-6.565a2.209,2.209,0,0,0,.119-3.107l-7.079-7.745a2.222,2.222,0,0,0-3.257-.107Z" transform="translate(-650 -396.373)"/>
      <path id="パス_183" data-name="パス 183" d="M774.816,472.177l-8.642,8.755a1.042,1.042,0,0,0,0,1.456l8.7,8.918a1.042,1.042,0,0,0,1.456,0l8.642-8.159a1.035,1.035,0,0,0,.05-1.456l-8.7-9.515a1.042,1.042,0,0,0-1.513,0Z" transform="translate(-657.929 -404.25)"/>
      <path id="パス_184" data-name="パス 184" d="M796.846,494.216,788.2,503a1.036,1.036,0,0,0,0,1.45l8.7,8.924a1.042,1.042,0,0,0,1.456,0l8.642-8.159a1.035,1.035,0,0,0,.05-1.456l-8.7-9.515a1.042,1.042,0,0,0-1.513-.031Z" transform="translate(-666.133 -412.463)"/>
      <path id="パス_185" data-name="パス 185" d="M816.346,513.727l-8.642,8.786a1.035,1.035,0,0,0,0,1.45l8.7,8.925a1.042,1.042,0,0,0,1.456,0l8.642-8.159a1.036,1.036,0,0,0,.05-1.456l-8.7-9.483a1.042,1.042,0,0,0-1.506-.063Z" transform="translate(-673.395 -419.736)"/>
      <path id="パス_186" data-name="パス 186" d="M838.185,535.545l-8.642,8.749a1.036,1.036,0,0,0,0,1.456l8.7,8.918a1.036,1.036,0,0,0,1.456,0l8.642-8.159a1.042,1.042,0,0,0,.05-1.456l-8.7-9.514a1.042,1.042,0,0,0-1.513.006Z" transform="translate(-681.526 -427.847)"/>
      <path id="パス_187" data-name="パス 187" d="M859.335,556.716l-8.642,8.749a1.036,1.036,0,0,0,0,1.456l8.7,8.924a1.042,1.042,0,0,0,1.456,0l8.642-8.159a1.042,1.042,0,0,0,.05-1.456l-8.73-9.483a1.042,1.042,0,0,0-1.481-.031Z" transform="translate(-689.402 -435.744)"/>
      <path id="パス_188" data-name="パス 188" d="M880.479,577.82l-8.655,8.786a1.036,1.036,0,0,0,0,1.45l8.7,8.924a1.042,1.042,0,0,0,1.456,0l8.642-8.159a1.036,1.036,0,0,0,.05-1.456l-8.7-9.514a1.042,1.042,0,0,0-1.5-.031Z" transform="translate(-697.273 -443.599)"/>
      <path id="パス_189" data-name="パス 189" d="M901.636,599.014l-8.642,8.755a1.042,1.042,0,0,0,0,1.456l8.68,8.918a1.042,1.042,0,0,0,1.456.031l8.642-8.159a1.036,1.036,0,0,0,.05-1.456l-8.7-9.514a1.042,1.042,0,0,0-1.487-.031Z" transform="translate(-705.156 -451.494)"/>
      <path id="パス_190" data-name="パス 190" d="M645.487,384.919l-6.954,7.042a2.215,2.215,0,0,0,0,3.138l7.086,7.261a2.215,2.215,0,0,0,3.138.063l6.948-6.558a2.222,2.222,0,0,0,.119-3.138l-7.123-7.751a2.222,2.222,0,0,0-3.213-.056Z" transform="translate(-610.264 -371.631)"/>
      <path id="パス_191" data-name="パス 191" d="M601.485,428.909l-6.96,7.042a2.222,2.222,0,0,0,0,3.138l7.079,7.2a2.215,2.215,0,0,0,3.107.069l6.954-6.565a2.209,2.209,0,0,0,.113-3.107l-7.079-7.72a2.215,2.215,0,0,0-3.213-.063Z" transform="translate(-593.876 -388.013)"/>
      <path id="パス_192" data-name="パス 192" d="M666.224,405.642l-6.96,7.042a2.215,2.215,0,0,0,0,3.138l7.079,7.261a2.222,2.222,0,0,0,3.138.069l6.948-6.6a2.228,2.228,0,0,0,.113-3.138l-7.079-7.738a2.209,2.209,0,0,0-3.238-.038Z" transform="translate(-617.984 -379.338)"/>
      <path id="パス_193" data-name="パス 193" d="M688.007,427.418l-6.954,7.042a2.215,2.215,0,0,0,0,3.107l7.086,7.261a2.215,2.215,0,0,0,3.138.063l6.948-6.558a2.222,2.222,0,0,0,.119-3.138l-7.079-7.745a2.222,2.222,0,0,0-3.257-.031Z" transform="translate(-626.104 -387.444)"/>
      <path id="パス_194" data-name="パス 194" d="M710.037,449.469l-6.954,7.048a2.215,2.215,0,0,0,0,3.107l7.086,7.261a2.209,2.209,0,0,0,3.107.063l6.954-6.558a2.222,2.222,0,0,0,.119-3.138l-7.092-7.688a2.228,2.228,0,0,0-3.22-.094Z" transform="translate(-634.308 -395.676)"/>
      <path id="パス_195" data-name="パス 195" d="M622.943,448.93l-6.96,7.042a2.215,2.215,0,0,0,0,3.107l7.079,7.261a2.215,2.215,0,0,0,3.138.063l6.954-6.558a2.228,2.228,0,0,0,.113-3.138l-7.079-7.738a2.209,2.209,0,0,0-3.245-.038Z" transform="translate(-601.872 -395.457)"/>
      <path id="パス_196" data-name="パス 196" d="M644.707,470.708l-6.954,7.048a2.215,2.215,0,0,0,0,3.138l7.086,7.261a2.215,2.215,0,0,0,3.138.063l6.948-6.558a2.222,2.222,0,0,0,.119-3.138l-7.079-7.745a2.222,2.222,0,0,0-3.257-.069Z" transform="translate(-609.973 -403.572)"/>
      <path id="パス_197" data-name="パス 197" d="M666.747,492.737l-6.954,7.048a2.215,2.215,0,0,0,0,3.107l7.086,7.261a2.222,2.222,0,0,0,3.138.063l6.948-6.565a2.209,2.209,0,0,0,.119-3.107L670,492.8a2.222,2.222,0,0,0-3.257-.063Z" transform="translate(-618.187 -411.775)"/>
      <path id="パス_198" data-name="パス 198" d="M732.067,471.492l-6.954,7.048a2.216,2.216,0,0,0,0,3.107l7.086,7.261a2.215,2.215,0,0,0,3.138.063l6.954-6.558a2.215,2.215,0,0,0,.113-3.138l-7.123-7.707a2.215,2.215,0,0,0-3.213-.075Z" transform="translate(-642.511 -403.873)"/>
      <path id="パス_199" data-name="パス 199" d="M754.093,493.517l-6.96,7.048a2.216,2.216,0,0,0,0,3.107l7.086,7.261a2.215,2.215,0,0,0,3.138.063l6.954-6.565a2.209,2.209,0,0,0,.113-3.107l-7.117-7.751a2.215,2.215,0,0,0-3.213-.056Z" transform="translate(-650.712 -412.072)"/>
      <path id="パス_200" data-name="パス 200" d="M776.695,514.333l-8.642,8.786a1.036,1.036,0,0,0,0,1.456l8.711,8.881a1.036,1.036,0,0,0,1.456,0l8.642-8.159a1.042,1.042,0,0,0,.05-1.456l-8.7-9.514a1.042,1.042,0,0,0-1.519.006Z" transform="translate(-658.627 -419.947)"/>
      <path id="パス_201" data-name="パス 201" d="M796.215,533.816l-8.642,8.786a1.035,1.035,0,0,0,0,1.456l8.7,8.918a1.036,1.036,0,0,0,1.456,0l8.642-8.159a1.042,1.042,0,0,0,.05-1.456l-8.7-9.514a1.042,1.042,0,0,0-1.513-.031Z" transform="translate(-665.897 -427.21)"/>
      <path id="パス_202" data-name="パス 202" d="M818.053,555.688l-8.648,8.786a1.036,1.036,0,0,0,0,1.45l8.7,8.924a1.042,1.042,0,0,0,1.456,0l8.642-8.159a1.036,1.036,0,0,0,.057-1.456l-8.7-9.514a1.042,1.042,0,0,0-1.506-.031Z" transform="translate(-674.028 -435.356)"/>
      <path id="パス_203" data-name="パス 203" d="M839.2,576.816l-8.642,8.786a1.036,1.036,0,0,0,0,1.456l8.7,8.918a1.048,1.048,0,0,0,1.462,0l8.636-8.159a1.036,1.036,0,0,0,.057-1.456l-8.7-9.514a1.042,1.042,0,0,0-1.513-.031Z" transform="translate(-681.906 -443.223)"/>
      <path id="パス_204" data-name="パス 204" d="M667.073,448.367l-6.96,7.054a2.216,2.216,0,0,0,0,3.107l7.086,7.261a2.209,2.209,0,0,0,3.138.063l6.954-6.558a2.222,2.222,0,0,0,.113-3.138l-7.117-7.726a2.209,2.209,0,0,0-3.213-.063Z" transform="translate(-618.306 -395.258)"/>
      <path id="パス_205" data-name="パス 205" d="M689.1,470.376l-6.96,7.035a2.216,2.216,0,0,0,0,3.107l7.086,7.261a2.209,2.209,0,0,0,3.138.063l6.954-6.558a2.228,2.228,0,0,0,.113-3.138l-7.079-7.738a2.209,2.209,0,0,0-3.251-.031Z" transform="translate(-626.51 -403.441)"/>
      <path id="パス_206" data-name="パス 206" d="M711.133,492.4l-6.96,7.017a2.215,2.215,0,0,0,0,3.107l7.079,7.261a2.215,2.215,0,0,0,3.138.063l6.954-6.558a2.228,2.228,0,0,0,.113-3.138l-7.079-7.745a2.215,2.215,0,0,0-3.245-.006Z" transform="translate(-634.713 -411.641)"/>
      <path id="パス_207" data-name="パス 207" d="M733.163,514.44l-6.96,7.042a2.216,2.216,0,0,0,0,3.107l7.079,7.261a2.215,2.215,0,0,0,3.138.063l6.954-6.558a2.228,2.228,0,0,0,.113-3.138l-7.079-7.745a2.216,2.216,0,0,0-3.245-.031Z" transform="translate(-642.917 -419.852)"/>
      <path id="パス_208" data-name="パス 208" d="M755.782,535.273l-8.648,8.749a1.042,1.042,0,0,0,0,1.456l8.7,8.918a1.036,1.036,0,0,0,1.456,0l8.642-8.159a1.035,1.035,0,0,0,.057-1.456l-8.7-9.521a1.035,1.035,0,0,0-1.506.013Z" transform="translate(-650.838 -427.745)"/>
      <path id="パス_209" data-name="パス 209" d="M775.282,554.805l-8.648,8.749a1.042,1.042,0,0,0,0,1.456l8.7,8.918a1.036,1.036,0,0,0,1.456,0l8.642-8.159a1.036,1.036,0,0,0,.056-1.456l-8.692-9.508a1.036,1.036,0,0,0-1.513,0Z" transform="translate(-658.1 -435.02)"/>
      <path id="パス_210" data-name="パス 210" d="M797.116,576.627l-8.642,8.786a1.042,1.042,0,0,0,0,1.456l8.7,8.918a1.036,1.036,0,0,0,1.456.031l8.642-8.159a1.035,1.035,0,0,0,.057-1.456l-8.7-9.514a1.042,1.042,0,0,0-1.506-.063Z" transform="translate(-666.233 -443.159)"/>
      <path id="パス_211" data-name="パス 211" d="M818.272,597.8l-8.648,8.724a1.042,1.042,0,0,0,0,1.456l8.7,8.918a1.036,1.036,0,0,0,1.456.031l8.642-8.159a1.036,1.036,0,0,0,.056-1.456l-8.686-9.515a1.029,1.029,0,0,0-1.519,0Z" transform="translate(-674.109 -451.029)"/>
      <path id="パス_212" data-name="パス 212" d="M860.355,597.995l-8.642,8.786a1.036,1.036,0,0,0,0,1.456l8.7,8.918a1.036,1.036,0,0,0,1.456.031l8.642-8.159a1.042,1.042,0,0,0,.05-1.456l-8.7-9.514a1.042,1.042,0,0,0-1.513-.063Z" transform="translate(-689.782 -451.116)"/>
      <path id="パス_213" data-name="パス 213" d="M881.49,619.145l-8.667,8.749a1.036,1.036,0,0,0,0,1.456l8.724,8.918A1.036,1.036,0,0,0,883,638.3l8.642-8.159a1.042,1.042,0,0,0,.05-1.456L883,619.17a1.035,1.035,0,0,0-1.506-.025Z" transform="translate(-697.643 -458.985)"/>
      <path id="パス_214" data-name="パス 214" d="M774.582,599.328l-8.159,8.24a1.394,1.394,0,0,0,0,1.952l8.215,8.422a1.393,1.393,0,0,0,1.952.038l8.159-7.676a1.4,1.4,0,0,0,.088-1.92l-8.215-8.987a1.4,1.4,0,0,0-2.04-.069Z" transform="translate(-657.984 -451.57)"/>
      <path id="パス_215" data-name="パス 215" d="M795.732,620.481l-8.159,8.24a1.393,1.393,0,0,0,0,1.952l8.215,8.422a1.393,1.393,0,0,0,1.952.038l8.159-7.676a1.393,1.393,0,0,0,.075-1.952l-8.24-8.987a1.4,1.4,0,0,0-2-.038Z" transform="translate(-665.86 -459.449)"/>
      <path id="パス_216" data-name="パス 216" d="M816.922,641.622l-8.159,8.24a1.393,1.393,0,0,0,0,1.952l8.215,8.422a1.393,1.393,0,0,0,1.952.044l8.159-7.682a1.387,1.387,0,0,0,.075-1.952l-8.215-8.981a1.387,1.387,0,0,0-2.027-.044Z" transform="translate(-673.751 -467.316)"/>
      <path id="パス_217" data-name="パス 217" d="M838.226,662.407l-8.642,8.755a1.042,1.042,0,0,0,0,1.456l8.7,8.918a1.036,1.036,0,0,0,1.456,0l8.642-8.159a1.035,1.035,0,0,0,.05-1.456l-8.7-9.515a1.042,1.042,0,0,0-1.513,0Z" transform="translate(-681.542 -475.091)"/>
      <path id="パス_218" data-name="パス 218" d="M623.412,405.552l-7.418,7.569a2.215,2.215,0,0,0,0,3.138l20.711,20.5a2.222,2.222,0,0,0,3.082.038l7.732-7.274a2.222,2.222,0,0,0,.044-3.195l-21.025-20.8A2.215,2.215,0,0,0,623.412,405.552Z" transform="translate(-601.87 -379.317)"/>
      <path id="パス_219" data-name="パス 219" d="M838.652,619.094l-9.069,9.238a1.054,1.054,0,0,0,0,1.469l22.349,22.123a1.035,1.035,0,0,0,1.443,0l9.452-8.893a1.036,1.036,0,0,0,0-1.494l-22.738-22.493A1.042,1.042,0,0,0,838.652,619.094Z" transform="translate(-681.542 -458.966)"/>
      <path id="パス_220" data-name="パス 220" d="M688.684,513.638l-8.655,8.573a1.029,1.029,0,0,0,0,1.462l48.194,49.4a1.042,1.042,0,0,0,1.456,0l9.414-8.881a1.036,1.036,0,0,0,0-1.487L690.14,513.62A1.042,1.042,0,0,0,688.684,513.638Z" transform="translate(-625.846 -419.697)"/>
    </g>
    <path id="パス_221" data-name="パス 221" d="M665.608,362.36l-6.985,7.061a2.215,2.215,0,0,0,0,3.107l7.079,7.261a2.222,2.222,0,0,0,3.138.063l6.954-6.565a2.215,2.215,0,0,0,.113-3.107l-7.079-7.745a2.215,2.215,0,0,0-3.22-.075Z" transform="translate(-272.082 -158.003)" fill="#464a5f"/>
    <path id="パス_222" data-name="パス 222" d="M686.363,383.105l-6.96,7.042a2.215,2.215,0,0,0,0,3.107l7.079,7.261a2.215,2.215,0,0,0,3.138.063l6.954-6.558a2.228,2.228,0,0,0,.113-3.138l-7.1-7.72a2.215,2.215,0,0,0-3.22-.056Z" transform="translate(-279.82 -165.724)" fill="#464a5f"/>
    <path id="パス_223" data-name="パス 223" d="M708.144,404.858l-6.96,7.048a2.222,2.222,0,0,0,0,3.107l7.073,7.249a2.222,2.222,0,0,0,3.138.063l6.954-6.565a2.215,2.215,0,0,0,.113-3.138l-7.079-7.745a2.215,2.215,0,0,0-3.238-.019Z" transform="translate(-287.932 -173.815)" fill="#464a5f"/>
    <path id="パス_224" data-name="パス 224" d="M730.16,426.909l-6.954,7.042a2.228,2.228,0,0,0,0,3.138l7.086,7.261a2.222,2.222,0,0,0,3.138.063l6.948-6.565a2.209,2.209,0,0,0,.119-3.107l-7.117-7.77a2.222,2.222,0,0,0-3.22-.063Z" transform="translate(-296.128 -182.039)" fill="#464a5f"/>
    <path id="パス_225" data-name="パス 225" d="M752.189,448.925l-6.954,7.042a2.222,2.222,0,0,0,0,3.138l7.086,7.255a2.222,2.222,0,0,0,3.138.069l6.948-6.565a2.209,2.209,0,0,0,.119-3.138l-7.079-7.745a2.222,2.222,0,0,0-3.257-.056Z" transform="translate(-304.331 -190.229)" fill="#464a5f"/>
    <path id="パス_226" data-name="パス 226" d="M774.816,469.809l-8.642,8.724a1.036,1.036,0,0,0,0,1.45l8.7,8.925a1.042,1.042,0,0,0,1.456.031l8.642-8.159a1.036,1.036,0,0,0,.05-1.456l-8.7-9.514a1.042,1.042,0,0,0-1.506,0Z" transform="translate(-312.26 -198.141)" fill="#464a5f"/>
    <path id="パス_227" data-name="パス 227" d="M796.846,491.809l-8.642,8.755a1.036,1.036,0,0,0,0,1.45l8.7,8.924a1.042,1.042,0,0,0,1.456,0l8.642-8.159a1.036,1.036,0,0,0,.05-1.456l-8.7-9.514a1.042,1.042,0,0,0-1.506,0Z" transform="translate(-320.464 -206.333)" fill="#464a5f"/>
    <path id="パス_228" data-name="パス 228" d="M816.346,511.3l-8.642,8.755a1.035,1.035,0,0,0,0,1.45l8.7,8.95a1.042,1.042,0,0,0,1.456,0l8.642-8.159a1.035,1.035,0,0,0,.05-1.456l-8.7-9.514a1.042,1.042,0,0,0-1.506-.025Z" transform="translate(-327.726 -213.595)" fill="#464a5f"/>
    <path id="パス_229" data-name="パス 229" d="M838.185,533.133l-8.642,8.749a1.036,1.036,0,0,0,0,1.456l8.7,8.918a1.036,1.036,0,0,0,1.456.031l8.642-8.159a1.042,1.042,0,0,0,.05-1.456l-8.7-9.521a1.042,1.042,0,0,0-1.512-.019Z" transform="translate(-335.857 -221.724)" fill="#464a5f"/>
    <path id="パス_230" data-name="パス 230" d="M859.335,554.3l-8.642,8.749a1.036,1.036,0,0,0,0,1.456l8.7,8.956a1.042,1.042,0,0,0,1.456,0l8.642-8.159a1.042,1.042,0,0,0,.05-1.456l-8.724-9.514a1.042,1.042,0,0,0-1.481-.031Z" transform="translate(-343.733 -229.614)" fill="#464a5f"/>
    <path id="パス_231" data-name="パス 231" d="M880.486,575.436l-8.642,8.786a1.036,1.036,0,0,0,0,1.45l8.7,8.924a1.042,1.042,0,0,0,1.456,0l8.642-8.159a1.036,1.036,0,0,0,.05-1.456l-8.7-9.514a1.042,1.042,0,0,0-1.513-.031Z" transform="translate(-351.611 -237.48)" fill="#464a5f"/>
    <path id="パス_232" data-name="パス 232" d="M901.636,596.585l-8.642,8.786a1.042,1.042,0,0,0,0,1.456l8.68,8.887a1.042,1.042,0,0,0,1.456,0l8.642-8.159a1.036,1.036,0,0,0,.05-1.456l-8.7-9.514a1.042,1.042,0,0,0-1.487,0Z" transform="translate(-359.487 -245.355)" fill="#464a5f"/>
    <path id="パス_233" data-name="パス 233" d="M645.5,382.5l-6.954,7.042a2.215,2.215,0,0,0,0,3.107l7.086,7.261a2.215,2.215,0,0,0,3.138.063l6.948-6.558a2.222,2.222,0,0,0,.119-3.138l-7.123-7.707a2.222,2.222,0,0,0-3.213-.069Z" transform="translate(-264.604 -165.504)" fill="#464a5f"/>
    <path id="パス_234" data-name="パス 234" d="M601.485,426.491l-6.96,7.042a2.222,2.222,0,0,0,0,3.138l7.086,7.255a2.215,2.215,0,0,0,3.107.069l6.954-6.565a2.222,2.222,0,0,0,.113-3.138l-7.086-7.726a2.209,2.209,0,0,0-3.213-.075Z" transform="translate(-248.207 -181.885)" fill="#464a5f"/>
    <path id="パス_235" data-name="パス 235" d="M666.233,403.218l-6.96,7.042a2.215,2.215,0,0,0,0,3.107l7.079,7.261a2.215,2.215,0,0,0,3.138.063l6.948-6.571a2.228,2.228,0,0,0,.113-3.138l-7.079-7.738a2.209,2.209,0,0,0-3.238-.025Z" transform="translate(-272.324 -173.204)" fill="#464a5f"/>
    <path id="パス_236" data-name="パス 236" d="M688.007,425.01l-6.954,7.048a2.215,2.215,0,0,0,0,3.107l7.086,7.261a2.215,2.215,0,0,0,3.138.063l6.948-6.558a2.222,2.222,0,0,0,.119-3.138l-7.117-7.72a2.228,2.228,0,0,0-3.22-.063Z" transform="translate(-280.434 -181.333)" fill="#464a5f"/>
    <path id="パス_237" data-name="パス 237" d="M710.037,447.027l-6.954,7.048a2.215,2.215,0,0,0,0,3.107l7.086,7.261a2.215,2.215,0,0,0,3.107.063l6.954-6.558a2.222,2.222,0,0,0,.119-3.138l-7.079-7.745a2.222,2.222,0,0,0-3.232-.038Z" transform="translate(-288.638 -189.524)" fill="#464a5f"/>
    <path id="パス_238" data-name="パス 238" d="M622.943,446.523l-6.96,7.042a2.215,2.215,0,0,0,0,3.107l7.079,7.261A2.215,2.215,0,0,0,626.2,464l6.954-6.558a2.228,2.228,0,0,0,.113-3.138l-7.111-7.726a2.209,2.209,0,0,0-3.213-.05Z" transform="translate(-256.203 -189.34)" fill="#464a5f"/>
    <path id="パス_239" data-name="パス 239" d="M644.717,468.279l-6.954,7.048a2.216,2.216,0,0,0,0,3.107l7.086,7.261a2.222,2.222,0,0,0,3.138.063l6.948-6.559a2.222,2.222,0,0,0,.119-3.138l-7.079-7.745a2.222,2.222,0,0,0-3.257-.038Z" transform="translate(-264.313 -197.433)" fill="#464a5f"/>
    <path id="パス_240" data-name="パス 240" d="M666.747,490.326l-6.954,7.079a2.215,2.215,0,0,0,0,3.107l7.086,7.261a2.222,2.222,0,0,0,3.138.063l6.948-6.565a2.209,2.209,0,0,0,.119-3.107L670,490.42a2.222,2.222,0,0,0-3.257-.094Z" transform="translate(-272.517 -205.653)" fill="#464a5f"/>
    <path id="パス_241" data-name="パス 241" d="M732.067,469.046l-6.954,7.048a2.215,2.215,0,0,0,0,3.107l7.086,7.261a2.215,2.215,0,0,0,3.138.063l6.954-6.565a2.209,2.209,0,0,0,.113-3.138l-7.079-7.745a2.216,2.216,0,0,0-3.257-.031Z" transform="translate(-296.842 -197.716)" fill="#464a5f"/>
    <path id="パス_242" data-name="パス 242" d="M754.093,491.087l-6.96,7.048a2.215,2.215,0,0,0,0,3.107l7.086,7.261a2.215,2.215,0,0,0,3.138.063L764.31,502a2.209,2.209,0,0,0,.113-3.107l-7.079-7.745a2.215,2.215,0,0,0-3.251-.063Z" transform="translate(-305.042 -205.931)" fill="#464a5f"/>
    <path id="パス_243" data-name="パス 243" d="M776.695,511.917l-8.642,8.755a1.036,1.036,0,0,0,0,1.456l8.7,8.918a1.036,1.036,0,0,0,1.456,0l8.642-8.159a1.042,1.042,0,0,0,.05-1.456l-8.7-9.515a1.042,1.042,0,0,0-1.513,0Z" transform="translate(-312.958 -213.82)" fill="#464a5f"/>
    <path id="パス_244" data-name="パス 244" d="M796.215,531.417l-8.642,8.755a1.036,1.036,0,0,0,0,1.456l8.7,8.918a1.036,1.036,0,0,0,1.456,0l8.642-8.159a1.042,1.042,0,0,0,.05-1.456l-8.7-9.514a1.042,1.042,0,0,0-1.513,0Z" transform="translate(-320.227 -221.082)" fill="#464a5f"/>
    <path id="パス_245" data-name="パス 245" d="M818.053,553.268l-8.648,8.755a1.036,1.036,0,0,0,0,1.45l8.7,8.924a1.042,1.042,0,0,0,1.456,0l8.642-8.159a1.035,1.035,0,0,0,.057-1.456l-8.7-9.483a1.042,1.042,0,0,0-1.506-.031Z" transform="translate(-328.359 -229.226)" fill="#464a5f"/>
    <path id="パス_246" data-name="パス 246" d="M839.2,574.407l-8.642,8.755a1.036,1.036,0,0,0,0,1.456l8.7,8.918a1.048,1.048,0,0,0,1.462,0l8.636-8.159a1.036,1.036,0,0,0,.057-1.456l-8.7-9.514a1.042,1.042,0,0,0-1.513,0Z" transform="translate(-336.237 -237.091)" fill="#464a5f"/>
    <path id="パス_247" data-name="パス 247" d="M667.073,445.947l-6.96,7.042a2.215,2.215,0,0,0,0,3.107l7.086,7.261a2.209,2.209,0,0,0,3.138.063l6.954-6.558a2.222,2.222,0,0,0,.113-3.138l-7.117-7.713a2.209,2.209,0,0,0-3.213-.063Z" transform="translate(-272.636 -189.128)" fill="#464a5f"/>
    <path id="パス_248" data-name="パス 248" d="M689.094,467.967l-6.96,7.042a2.215,2.215,0,0,0,0,3.138l7.086,7.261a2.209,2.209,0,0,0,3.138.063l6.954-6.558a2.228,2.228,0,0,0,.113-3.138l-7.079-7.738a2.209,2.209,0,0,0-3.251-.069Z" transform="translate(-280.831 -197.322)" fill="#464a5f"/>
    <path id="パス_249" data-name="パス 249" d="M711.133,489.99l-6.96,7.042a2.215,2.215,0,0,0,0,3.107l7.079,7.261a2.216,2.216,0,0,0,3.138.063l6.954-6.558a2.228,2.228,0,0,0,.113-3.138l-7.079-7.745a2.216,2.216,0,0,0-3.245-.031Z" transform="translate(-289.044 -205.518)" fill="#464a5f"/>
    <path id="パス_250" data-name="パス 250" d="M733.154,512.022l-6.96,7.048a2.215,2.215,0,0,0,0,3.138l7.079,7.261a2.216,2.216,0,0,0,3.138.063l6.954-6.558a2.228,2.228,0,0,0,.113-3.138l-7.079-7.745a2.222,2.222,0,0,0-3.245-.069Z" transform="translate(-297.239 -213.731)" fill="#464a5f"/>
    <path id="パス_251" data-name="パス 251" d="M755.782,532.865l-8.648,8.755a1.042,1.042,0,0,0,0,1.456l8.7,8.918a1.036,1.036,0,0,0,1.456.031l8.642-8.159a1.042,1.042,0,0,0,.057-1.462l-8.7-9.514a1.035,1.035,0,0,0-1.506-.025Z" transform="translate(-305.169 -221.626)" fill="#464a5f"/>
    <path id="パス_252" data-name="パス 252" d="M775.282,552.363l-8.648,8.749a1.042,1.042,0,0,0,0,1.456l8.7,8.906a1.036,1.036,0,0,0,1.456.031l8.642-8.159a1.042,1.042,0,0,0,.056-1.462l-8.692-9.5a1.036,1.036,0,0,0-1.513-.025Z" transform="translate(-312.431 -228.886)" fill="#464a5f"/>
    <path id="パス_253" data-name="パス 253" d="M797.116,574.2l-8.642,8.786a1.042,1.042,0,0,0,0,1.456l8.7,8.918a1.036,1.036,0,0,0,1.456,0l8.642-8.159a1.035,1.035,0,0,0,.057-1.456l-8.7-9.514a1.042,1.042,0,0,0-1.506-.031Z" transform="translate(-320.564 -237.02)" fill="#464a5f"/>
    <path id="パス_254" data-name="パス 254" d="M818.272,595.349l-8.648,8.749a1.042,1.042,0,0,0,0,1.456l8.7,8.912a1.036,1.036,0,0,0,1.456,0l8.642-8.159a1.036,1.036,0,0,0,.056-1.456l-8.686-9.477a1.029,1.029,0,0,0-1.519-.025Z" transform="translate(-328.44 -244.891)" fill="#464a5f"/>
    <path id="パス_255" data-name="パス 255" d="M860.355,595.568l-8.642,8.786a1.036,1.036,0,0,0,0,1.456l8.7,8.918a1.036,1.036,0,0,0,1.456,0l8.642-8.159a1.042,1.042,0,0,0,.05-1.456l-8.7-9.514a1.042,1.042,0,0,0-1.506-.031Z" transform="translate(-344.113 -244.979)" fill="#464a5f"/>
    <path id="パス_256" data-name="パス 256" d="M881.5,616.727l-8.642,8.786a1.036,1.036,0,0,0,0,1.456l8.7,8.918a1.036,1.036,0,0,0,1.456,0l8.642-8.159a1.042,1.042,0,0,0,.05-1.456l-8.7-9.483a1.042,1.042,0,0,0-1.506-.063Z" transform="translate(-351.989 -252.863)" fill="#464a5f"/>
    <path id="パス_257" data-name="パス 257" d="M774.582,596.9l-8.159,8.24a1.393,1.393,0,0,0,0,1.952l8.215,8.422a1.393,1.393,0,0,0,1.952.038l8.159-7.676a1.4,1.4,0,0,0,.075-1.952l-8.215-8.987a1.4,1.4,0,0,0-2.027-.038Z" transform="translate(-312.314 -245.435)" fill="#464a5f"/>
    <path id="パス_258" data-name="パス 258" d="M795.732,618.061l-8.159,8.24a1.393,1.393,0,0,0,0,1.952l8.234,8.448a1.393,1.393,0,0,0,1.927,0l8.159-7.676a1.393,1.393,0,0,0,.075-1.952l-8.234-8.975a1.4,1.4,0,0,0-2-.038Z" transform="translate(-320.19 -253.319)" fill="#464a5f"/>
    <path id="パス_259" data-name="パス 259" d="M816.922,639.2l-8.159,8.24a1.393,1.393,0,0,0,0,1.952l8.215,8.422a1.387,1.387,0,0,0,1.952.038l8.159-7.676a1.387,1.387,0,0,0,.075-1.952l-8.215-8.987a1.393,1.393,0,0,0-2.027-.038Z" transform="translate(-328.082 -261.186)" fill="#464a5f"/>
    <path id="パス_260" data-name="パス 260" d="M838.226,660l-8.642,8.786a1.042,1.042,0,0,0,0,1.456l8.7,8.918a1.042,1.042,0,0,0,1.456.031l8.642-8.159a1.036,1.036,0,0,0,.05-1.456l-8.7-9.514a1.042,1.042,0,0,0-1.512-.063Z" transform="translate(-335.873 -268.979)" fill="#464a5f"/>
    <path id="パス_261" data-name="パス 261" d="M623.412,403.133l-7.418,7.575a2.215,2.215,0,0,0,0,3.138l20.711,20.5a2.222,2.222,0,0,0,3.081.038l7.732-7.274a2.222,2.222,0,0,0,.044-3.195l-21.025-20.8A2.215,2.215,0,0,0,623.412,403.133Z" transform="translate(-256.201 -173.188)" fill="#464a5f"/>
    <path id="パス_262" data-name="パス 262" d="M838.652,616.678l-9.069,9.257a1.054,1.054,0,0,0,0,1.469l22.349,22.123a1.035,1.035,0,0,0,1.443,0l9.452-8.893a1.035,1.035,0,0,0,0-1.494l-22.738-22.493A1.036,1.036,0,0,0,838.652,616.678Z" transform="translate(-335.873 -252.84)" fill="#464a5f"/>
    <path id="パス_263" data-name="パス 263" d="M688.684,511.218l-8.655,8.573a1.029,1.029,0,0,0,0,1.462l48.194,49.4a1.042,1.042,0,0,0,1.456,0l9.414-8.881a1.036,1.036,0,0,0,0-1.487L690.14,511.2A1.042,1.042,0,0,0,688.684,511.218Z" transform="translate(-280.176 -213.567)" fill="#464a5f"/>
    <path id="パス_264" data-name="パス 264" d="M616.264,520.022l-38.052,37.8a5.648,5.648,0,0,0-.063,7.945l70.379,72.275a5.648,5.648,0,0,0,8.008.088l39.181-38.541a5.649,5.649,0,0,0,.031-8.015l-71.509-71.553A5.648,5.648,0,0,0,616.264,520.022Z" transform="translate(-241.754 -216.346)" opacity="0.1"/>
    <path id="パス_265" data-name="パス 265" d="M616.264,517.563l-38.052,37.832a5.649,5.649,0,0,0-.063,7.945l70.379,72.275a5.649,5.649,0,0,0,8.008.088l39.181-38.541a5.649,5.649,0,0,0,.031-8.015L624.241,517.6A5.648,5.648,0,0,0,616.264,517.563Z" transform="translate(-241.754 -215.437)" fill="#939498"/>
    <path id="パス_266" data-name="パス 266" d="M692.354,201.266l-9.634,67.354,178.5,177.932,9.088-66.764a11.8,11.8,0,0,0-3.358-9.935L696.314,199.936a2.335,2.335,0,0,0-3.96,1.331Z" transform="translate(-281.292 -97.507)" fill="#6c63ff"/>
    <ellipse id="楕円形_2" data-name="楕円形 2" cx="14.504" cy="1.99" rx="14.504" ry="1.99" transform="translate(170.696 426.266)" fill="#6c63ff" opacity="0.1"/>
    <ellipse id="楕円形_3" data-name="楕円形 3" cx="14.504" cy="1.99" rx="14.504" ry="1.99" transform="translate(115.128 431.902)" fill="#6c63ff" opacity="0.1"/>
    <ellipse id="楕円形_4" data-name="楕円形 4" cx="14.504" cy="1.99" rx="14.504" ry="1.99" transform="translate(49.681 424.276)" fill="#6c63ff" opacity="0.1"/>
    <ellipse id="楕円形_5" data-name="楕円形 5" cx="10.312" cy="1.418" rx="10.312" ry="1.418" transform="translate(141.562 448.515)" fill="#6c63ff" opacity="0.1"/>
    <ellipse id="楕円形_6" data-name="楕円形 6" cx="10.312" cy="1.418" rx="10.312" ry="1.418" transform="translate(83.892 447.096)" fill="#6c63ff" opacity="0.1"/>
    <path id="パス_267" data-name="パス 267" d="M212.512,662.441s20.341-66.689-3.188-93.369C191.751,549.09,171.749,551.5,162.8,553.953a16.531,16.531,0,0,0-10.669,8.862c-3.138,6.753-2.561,17.7,19.518,30.489,36.978,21.408,39.275,50.773,39.275,50.773Z" transform="translate(-83.188 -228.995)" fill="#6c63ff"/>
    <path id="パス_268" data-name="パス 268" d="M175,569.93s59.974,18.747,46.531,99.061" transform="translate(-92.219 -235.545)" fill="none" stroke="#565987" stroke-miterlimit="10" stroke-width="1"/>
    <path id="パス_269" data-name="パス 269" d="M227.177,580.64s-8.253,5.561-5.648,13.927" transform="translate(-109.357 -239.534)" fill="none" stroke="#565987" stroke-miterlimit="10" stroke-width="1"/>
    <path id="パス_270" data-name="パス 270" d="M184.61,586.658s5.021-5.134,11.19-2.3" transform="translate(-95.798 -240.6)" fill="none" stroke="#565987" stroke-miterlimit="10" stroke-width="1"/>
    <path id="パス_271" data-name="パス 271" d="M222.38,628.67s8.862-4.5,11.159,1.136" transform="translate(-109.863 -256.786)" fill="none" stroke="#565987" stroke-miterlimit="10" stroke-width="1"/>
    <path id="パス_272" data-name="パス 272" d="M253.308,644.6s-6.659-.527-6.778,2.655" transform="translate(-118.857 -263.34)" fill="none" stroke="#565987" stroke-miterlimit="10" stroke-width="1"/>
    <path id="パス_273" data-name="パス 273" d="M229.141,700.479s-23.849-48.47-30.376-47.409c-3.107.5-4.538,3.558-5.184,6.634a19.556,19.556,0,0,0,1.293,11.8C198.256,679.26,207.338,693.99,229.141,700.479Z" transform="translate(-98.994 -266.5)" fill="#6c63ff"/>
    <path id="パス_274" data-name="パス 274" d="M202.36,667.73s25,36.269,29.836,37.857" transform="translate(-102.408 -271.966)" fill="none" stroke="#565987" stroke-miterlimit="10" stroke-width="1"/>
    <line id="線_1" data-name="線 1" x2="5.837" transform="translate(97.649 401.425)" fill="none" stroke="#565987" stroke-miterlimit="10" stroke-width="1"/>
    <line id="線_2" data-name="線 2" x2="9.15" y2="0.389" transform="translate(104.64 414.693)" fill="none" stroke="#565987" stroke-miterlimit="10" stroke-width="1"/>
    <line id="線_3" data-name="線 3" x1="0.992" y2="4.764" transform="translate(109.216 404.08)" fill="none" stroke="#565987" stroke-miterlimit="10" stroke-width="1"/>
    <line id="線_4" data-name="線 4" x1="0.182" y2="4.33" transform="translate(119.759 418.584)" fill="none" stroke="#565987" stroke-miterlimit="10" stroke-width="1"/>
    <path id="パス_275" data-name="パス 275" d="M249.34,700.479s23.849-48.47,30.37-47.409c3.138.5,4.544,3.558,5.19,6.634a19.506,19.506,0,0,1-1.3,11.8C280.224,679.26,271.143,693.99,249.34,700.479Z" transform="translate(-119.903 -266.5)" fill="#6c63ff"/>
    <path id="パス_276" data-name="パス 276" d="M279.743,667.73S254.733,704,249.9,705.587" transform="translate(-120.112 -271.966)" fill="none" stroke="#565987" stroke-miterlimit="10" stroke-width="1"/>
    <line id="線_5" data-name="線 5" x1="5.837" transform="translate(156.091 401.425)" fill="none" stroke="#565987" stroke-miterlimit="10" stroke-width="1"/>
    <line id="線_6" data-name="線 6" x1="9.15" y2="0.389" transform="translate(145.786 414.693)" fill="none" stroke="#565987" stroke-miterlimit="10" stroke-width="1"/>
    <line id="線_7" data-name="線 7" x2="0.992" y2="4.764" transform="translate(149.37 404.08)" fill="none" stroke="#565987" stroke-miterlimit="10" stroke-width="1"/>
    <line id="線_8" data-name="線 8" x2="0.176" y2="4.33" transform="translate(139.642 418.584)" fill="none" stroke="#565987" stroke-miterlimit="10" stroke-width="1"/>
    <path id="パス_277" data-name="パス 277" d="M183.311,742.763a4.111,4.111,0,0,1-1.356-2.046,1.82,1.82,0,0,1,.948-2.084c.872-.333,1.8.27,2.51.879a3.388,3.388,0,0,0,2.441,1.18,3.7,3.7,0,0,1-1.148-3.471,1.411,1.411,0,0,1,.32-.709c.483-.515,1.356-.3,1.933.113,1.845,1.293,2.354,3.766,2.366,6.044a11.384,11.384,0,0,0,.031-2.51,2.567,2.567,0,0,1,.935-2.2,2.855,2.855,0,0,1,1.425-.333,2.937,2.937,0,0,1,2.316.628,2.287,2.287,0,0,1-.094,2.837,8.925,8.925,0,0,1-2.391,1.92,5.259,5.259,0,0,0-1.713,1.632,1.739,1.739,0,0,0-.126.289h-5.184a14.469,14.469,0,0,1-3.213-2.165Z" transform="translate(-94.788 -297.468)" fill="#6c63ff"/>
    <path id="パス_278" data-name="パス 278" d="M327.978,711.661a4.148,4.148,0,0,1-1.362-2.046,1.826,1.826,0,0,1,.948-2.084c.872-.333,1.8.27,2.51.879a3.344,3.344,0,0,0,2.435,1.174,3.715,3.715,0,0,1-1.148-3.471,1.475,1.475,0,0,1,.32-.7c.483-.521,1.356-.295,1.939.113,1.839,1.293,2.354,3.766,2.36,6.038a11.335,11.335,0,0,0,.038-2.51,2.51,2.51,0,0,1,.935-2.2,2.761,2.761,0,0,1,1.425-.333,2.949,2.949,0,0,1,2.31.628,2.3,2.3,0,0,1-.088,2.843,8.93,8.93,0,0,1-2.4,1.883,5.434,5.434,0,0,0-1.707,1.632,1.392,1.392,0,0,0-.125.3h-5.19A14.437,14.437,0,0,1,327.978,711.661Z" transform="translate(-148.659 -285.885)" fill="#6c63ff"/>
    <path id="パス_279" data-name="パス 279" d="M279.761,742.763a4.11,4.11,0,0,1-1.356-2.046,1.82,1.82,0,0,1,.948-2.084c.872-.333,1.8.27,2.51.879a3.388,3.388,0,0,0,2.441,1.18,3.7,3.7,0,0,1-1.148-3.471,1.411,1.411,0,0,1,.32-.709c.483-.515,1.356-.3,1.933.113,1.839,1.293,2.354,3.766,2.366,6.044a11.386,11.386,0,0,0,.031-2.51,2.567,2.567,0,0,1,.929-2.2,2.854,2.854,0,0,1,1.425-.333,2.937,2.937,0,0,1,2.316.628,2.288,2.288,0,0,1-.094,2.837,8.926,8.926,0,0,1-2.391,1.921,5.26,5.26,0,0,0-1.713,1.632,1.733,1.733,0,0,0-.126.289h-5.184a14.464,14.464,0,0,1-3.207-2.171Z" transform="translate(-130.705 -297.468)" fill="#6c63ff"/>
    <path id="パス_280" data-name="パス 280" d="M141.281,683.78s-1.946,2.542.9,6.376,5.184,7.079,4.236,9.471c0,0-4.287-7.13-7.776-7.224S137.44,688.067,141.281,683.78Z" transform="translate(-78.037 -277.943)" fill="#6c63ff"/>
    <path id="パス_281" data-name="パス 281" d="M141.281,683.78a3.2,3.2,0,0,0-.4.8c-3.408,4-5.222,7.732-1.946,7.826,3.044.082,6.7,5.535,7.575,6.9a2.614,2.614,0,0,1-.1.314s-4.287-7.13-7.776-7.224S137.44,688.067,141.281,683.78Z" transform="translate(-78.037 -277.943)" opacity="0.1"/>
    <path id="パス_282" data-name="パス 282" d="M138.11,688.6c0,.9.1,1.619.226,1.619s.226-.722.226-1.619-.126-.471-.251-.471S138.11,687.7,138.11,688.6Z" transform="translate(-78.481 -279.525)" fill="#ffd037"/>
    <path id="パス_283" data-name="パス 283" d="M135.857,690.275c.785.427,1.469.69,1.525.577s-.527-.54-1.312-.973-.477-.113-.533,0S135.073,689.873,135.857,690.275Z" transform="translate(-77.465 -280.132)" fill="#ffd037"/>
    <path id="パス_284" data-name="パス 284" d="M157.057,683.78s1.939,2.542-.9,6.376-5.184,7.079-4.236,9.471c0,0,4.287-7.13,7.776-7.224S160.892,688.067,157.057,683.78Z" transform="translate(-83.546 -277.943)" fill="#6c63ff"/>
    <path id="パス_285" data-name="パス 285" d="M157.12,683.78a3.2,3.2,0,0,1,.4.8c3.4,4,5.215,7.732,1.946,7.826-3.05.082-6.7,5.535-7.581,6.9a2.637,2.637,0,0,0,.107.314s4.287-7.13,7.776-7.224S160.955,688.067,157.12,683.78Z" transform="translate(-83.609 -277.943)" opacity="0.1"/>
    <path id="パス_286" data-name="パス 286" d="M165.736,688.6c0,.9-.1,1.619-.22,1.619s-.226-.722-.226-1.619.126-.471.251-.471S165.736,687.7,165.736,688.6Z" transform="translate(-88.603 -279.525)" fill="#ffd037"/>
    <path id="パス_287" data-name="パス 287" d="M167.089,690.275c-.785.427-1.469.69-1.531.577s.533-.54,1.318-.973.477-.113.533,0S167.848,689.873,167.089,690.275Z" transform="translate(-88.701 -280.132)" fill="#ffd037"/>
    <path id="パス_288" data-name="パス 288" d="M152.99,706.759s-5.435-.169-7.073-1.331-8.36-2.561-8.786-.69-8.159,9.3-2.027,9.351,14.253-.954,15.891-1.952S152.99,706.759,152.99,706.759Z" transform="translate(-76.485 -285.408)" fill="#a8a8a8"/>
    <path id="パス_289" data-name="パス 289" d="M135.02,715.174c6.138.05,14.259-.954,15.891-1.952,1.255-.759,1.738-3.477,1.883-4.732H153s-.345,4.393-1.977,5.379-9.759,2-15.891,1.952c-1.77,0-2.385-.628-2.354-1.575C133.03,714.81,133.7,715.161,135.02,715.174Z" transform="translate(-76.496 -287.144)" opacity="0.2"/>
    <path id="パス_290" data-name="パス 290" d="M215.558,319.171c-.1,2.636,2.159,6.138,2.159,6.138.69,1.663,9.157,9.37,9.157,9.37l6.276,4.192a35.143,35.143,0,0,1-3.979,2.542c-3.056,1.563-4.726,6.734-4.726,6.734s-4.632,11.127,4.726,12.69l.176.031.841.91a62.094,62.094,0,0,0,5.479,5.5c1.575,1.073,6.4,9.176,6.4,9.176s5.115,8.4,11.924,8.786,6.791-7.418,6.276-7.908a3.137,3.137,0,0,1-.421-1.067c1.625,2.617,3.841,6.056,4.556,6.533,1.18.778,5.021,6.9,5.021,6.9s4.826,11.027,5.611,12.2,2.165,7.029,2.165,7.029,2.761,8.1,4.042,9.176,1.964,4.977,1.964,4.977,4.035,5.856,4.726,6.828a41.529,41.529,0,0,1,2.165,4.393s2.165,3.515,2.165,4.883,4.531,3.7,4.531,3.7,3.251,3.81,5.121,4.494,3.64,5.171,3.935,4.876a1.173,1.173,0,0,1,.559-.113l.766.766c2.987,2.975,8.956,8.906,10.487,10.28,2.071,1.883,6.8,2.146,10.732,1.368,2.021-.4,4.481-2.316,6.4-4.086a4.393,4.393,0,0,0,.075-6.345c-1.883-1.814-4.061-3.8-5.021-4.111-1.77-.59-6.791-4.1-9.15-7.029a19.812,19.812,0,0,0-5.31-4.01l-.226-.132a19.587,19.587,0,0,1-.571-3.276s3.251-7.318,1.475-7.707S307.6,415.86,307.6,415.86c-.094-8.786-8.159-16.2-8.159-16.2s-4.035-9.565-5.215-11.611a3.138,3.138,0,0,1,0-3.515,13,13,0,0,1-2.655-2.636c-.389-.879-2.266-7.531-2.266-7.531s-2.266-4-2.366-5.856-4.512-7.017-4.512-7.017-1.789-8.7-3.766-10.261c-.383-.3-.326-1.45,0-3.1l.094-.1.3-.295.088-.088a32.115,32.115,0,0,0,2.548-2.831l.038-.05c.126-.157.245-.308.358-.464,2.856-3.9,4.625-13.18,4.625-13.18s.565-.264,1.3-.665a12.388,12.388,0,0,0,2.837-1.952.627.627,0,0,0,.1-.151.125.125,0,0,0,0-.05.966.966,0,0,0,.05-.119.326.326,0,0,0,0-.069.9.9,0,0,0,0-.138v-.295a.708.708,0,0,0-.031-.251.269.269,0,0,1,0-.031,1.1,1.1,0,0,0-.05-.232v-.075a.743.743,0,0,0-.063-.213.587.587,0,0,0,0-.082l-.075-.232a.227.227,0,0,1,0-.056c-.119-.314-.264-.628-.427-.967h0l-.169-.32h0a17.058,17.058,0,0,0-.967-1.651l-.05-.075c.69-1.946,2.027-5.372,3.27-6.6,1.77-1.757-.985-11.127-.985-11.127s-.59-6.634-1.381-8.586,0-2.234-.628-3.9c-.759-1.883-1.312-1.757-.333-6.05.37-1.619.941-3.4,1.456-5.065l.628.577c3.64,3.433,9.358,7.9,9.358,7.9s11.222,10.148,12.207,10.443,3.941,10.249,3.941,10.249-.69,16.493,8.366,17.178c3.847.289,5.479-2.686,6.069-6.194A18.69,18.69,0,0,0,326.694,307l-5.423-6.163-4.826-8.586a87.453,87.453,0,0,1-7.726-15.339,42.733,42.733,0,0,0-9.464-13.989l-.389-.383.5-.464s-.791-6.439-1.381-7.217-2.755-5.272-2.755-6.276-1.381-1.167-2.165-2.341c0,0-1.381-2.73-2.661-3.138a1.883,1.883,0,0,1-.628-.4,14.134,14.134,0,0,0-8.046-3.483l-.785-.075a43.941,43.941,0,0,0-5.234.075h-.044a9.524,9.524,0,0,1-3.383-2.372,26.606,26.606,0,0,0-5.5-3.8,10.763,10.763,0,0,0-6.628-1.494c-1.782.289-3.376,1.255-5.115,1.764-2.473.7-5.51.552-7.067,2.579-.747.966-.96,2.253-1.657,3.251-.992,1.418-2.812,2.077-3.835,3.477a5.335,5.335,0,0,0-.885,3.464,9.628,9.628,0,0,0,.351,2.931,15.277,15.277,0,0,1,.571,2.51,3.139,3.139,0,0,1-.069.414c-.138.628-.458,1.155-.584,1.764a3.184,3.184,0,0,0-.031,1c-.188,1.5.778,2.925,1.431,4.318a11.553,11.553,0,0,1,.985,3.439,32.5,32.5,0,0,0-4.764,1.826,13.579,13.579,0,0,0-5.3,4.054A26.83,26.83,0,0,1,227.1,275.2a55.779,55.779,0,0,0-2.165,6.427c-.59,2.51-1.18,6.634-2.95,8.786s-2.586,8.542-2.586,8.542-2.366,3.8-2.366,4.588-.295,4.393,0,5.46a3.2,3.2,0,0,0,.684.891l-.176.628A56.2,56.2,0,0,0,215.558,319.171Zm55.505-43.964a6.1,6.1,0,0,1-.176.628c0-.2.031-.4.044-.6Zm-22.431,83.421-.314-.289-.151-.138a1.3,1.3,0,0,1,.056-.238Zm-16.318-39.947.126-.232.464-.841,3.766-3.075.483.439s-.4,4.1-1.374,3.9c-.226-.044-.326.9-.351,2.372-1.776-1.519-3.132-2.567-3.132-2.567Z" transform="translate(-107.322 -109.498)" fill="url(#linear-gradient)"/>
    <path id="パス_291" data-name="パス 291" d="M296.41,248.826s11.717-1.054,14.5-.766l.759.069a13.732,13.732,0,0,1,7.814,3.471,1.883,1.883,0,0,0,.628.4c1.255.383,2.592,3.075,2.592,3.075s-2.975,23.529-2.975,23.818-6.151,10.945-6.151,10.945l-5.956,2.31-10.274,1.45-.289-4.431s4.946-2.711,4.393-8.316S296.41,248.826,296.41,248.826Z" transform="translate(-137.432 -115.664)" fill="#464353"/>
    <path id="パス_292" data-name="パス 292" d="M287.909,287.752s-2.51,11.335,0,14.981-24.778-5.95-24.778-5.95l-5.021-9.031s1.883-1.337,4-3.063c2.987-2.4,6.565-5.554,6.565-6.9C268.71,275.457,287.909,287.752,287.909,287.752Z" transform="translate(-123.169 -126.643)" fill="#ecb4b6"/>
    <path id="パス_293" data-name="パス 293" d="M287.909,287.752s-2.51,11.335,0,14.981-24.778-5.95-24.778-5.95l-5.021-9.031s1.883-1.337,4-3.063c2.987-2.4,6.565-5.554,6.565-6.9C268.71,275.457,287.909,287.752,287.909,287.752Z" transform="translate(-123.169 -126.643)" opacity="0.1"/>
    <circle id="楕円形_7" data-name="楕円形 7" cx="16.713" cy="16.713" r="16.713" transform="translate(142.265 135.196)" opacity="0.1"/>
    <circle id="楕円形_8" data-name="楕円形 8" cx="16.713" cy="16.713" r="16.713" transform="translate(142.265 134.424)" fill="#ecb4b6"/>
    <path id="パス_294" data-name="パス 294" d="M330.837,300.565c.063.628,1.255,1.927,2.874,3.464,3.552,3.376,9.132,7.776,9.132,7.776s10.952,9.985,11.924,10.274,3.841,10.086,3.841,10.086-.672,16.23,8.159,16.9c3.766.282,5.347-2.636,5.925-6.094a18.508,18.508,0,0,0-4.324-15.062l-5.247-6.107-4.707-8.454a85.876,85.876,0,0,1-7.588-15.062,42.005,42.005,0,0,0-9.219-13.807c-.985-.979-1.619-1.5-1.619-1.5l-4.393,1.343S330.649,298.632,330.837,300.565Z" transform="translate(-150.25 -128.686)" fill="#ecb4b6"/>
    <path id="パス_295" data-name="パス 295" d="M357.62,572.6l1.682,1.688c2.912,2.931,8.736,8.786,10.23,10.117,2.015,1.826,6.628,2.115,10.468,1.343,1.971-.389,4.393-2.278,6.238-4.017a4.318,4.318,0,0,0,.069-6.245c-1.82-1.782-3.954-3.766-4.87-4.048-1.726-.577-6.627-4.029-8.931-6.9a19.075,19.075,0,0,0-5.171-3.948c-1.657-.935-2.994-1.525-2.994-1.525Z" transform="translate(-160.226 -231.497)" fill="#c17174"/>
    <path id="パス_296" data-name="パス 296" d="M361.4,573.793s.559.571,1.425,1.437c2.479,2.51,7.431,7.456,8.7,8.6,1.713,1.55,5.648,1.795,8.9,1.142a11.884,11.884,0,0,0,4.7-2.862,4.324,4.324,0,0,0,.157-6.364,16.583,16.583,0,0,0-3.634-2.943,24.351,24.351,0,0,1-7.594-5.881,16.124,16.124,0,0,0-4.393-3.358c-1.406-.8-2.542-1.3-2.542-1.3Z" transform="translate(-161.634 -232.693)" opacity="0.1"/>
    <path id="パス_297" data-name="パス 297" d="M236,434.328s1.318,1.487,2.918,3.232a59.606,59.606,0,0,0,5.341,5.41C245.8,444.03,250.5,452,250.5,452s5.021,8.259,11.623,8.642,6.627-7.3,6.144-7.776-1.148-4.807-2.109-7.977c-.728-2.4-6.684-8.1-9.533-10.726-.916-.847-1.513-1.374-1.513-1.374Z" transform="translate(-114.935 -184.475)" fill="#c17174"/>
    <path id="パス_298" data-name="パス 298" d="M238.25,436.17s1.192,1.356,2.655,2.95a55.7,55.7,0,0,0,4.87,4.933c1.406.967,5.692,8.234,5.692,8.234s4.556,7.531,10.6,7.876,6.038-6.653,5.6-7.092-1.054-4.393-1.927-7.268c-.665-2.184-6.094-7.381-8.692-9.778-.835-.772-1.381-1.255-1.381-1.255Z" transform="translate(-115.773 -185.212)" opacity="0.1"/>
    <path id="パス_299" data-name="パス 299" d="M236,434.328s1.318,1.487,2.918,3.232c8.435,1.255,12.358-.157,12.358-.157a39.423,39.423,0,0,1,4.8-1.826c.22,0,.377-.571.552-1.412-.916-.847-1.513-1.374-1.513-1.374Z" transform="translate(-114.935 -184.475)" opacity="0.1"/>
    <path id="パス_300" data-name="パス 300" d="M243.89,399.13a68.818,68.818,0,0,1-8.278,5.856c-2.994,1.544-4.594,6.615-4.594,6.615s-4.512,10.952,4.607,12.483,13.355,0,13.355,0a39.561,39.561,0,0,1,4.8-1.82c.866-.094.86-8.36,4.029-10.858s10.468-8.159,10.468-8.159Z" transform="translate(-112.664 -171.94)" fill="#5e5a6b"/>
    <path id="パス_301" data-name="パス 301" d="M243.89,399.13a68.818,68.818,0,0,1-8.278,5.856c-2.994,1.544-4.594,6.615-4.594,6.615s-4.512,10.952,4.607,12.483,13.355,0,13.355,0a39.561,39.561,0,0,1,4.8-1.82c.866-.094.86-8.36,4.029-10.858s10.468-8.159,10.468-8.159Z" transform="translate(-112.664 -171.94)" opacity="0.1"/>
    <path id="パス_302" data-name="パス 302" d="M322.4,378.16s3.766,5.128,2.6,6.358a17.5,17.5,0,0,1-4.029,2.573s-1.732,9.125-4.519,12.966-8.253,8.071-8.253,8.071l3.835-21.42Z" transform="translate(-141.822 -164.131)" fill="#5e5a6b"/>
    <path id="パス_303" data-name="パス 303" d="M308.21,408.128a63.392,63.392,0,0,0,4.908-4.305,30.754,30.754,0,0,0,3.339-3.766c2.787-3.841,4.519-12.966,4.519-12.966A17.1,17.1,0,0,0,325,384.518c.7-.747-.408-2.925-1.387-4.525-.628-1.042-1.205-1.833-1.205-1.833l-5.441,4.481-4.933,4.067-1.45,8.3Z" transform="translate(-141.826 -164.131)" opacity="0.1"/>
    <path id="パス_304" data-name="パス 304" d="M357.62,572.59l1.682,1.688c1.061,0,2.642.132,2.642.132s7.776-9.32,6.527-10.952a7.959,7.959,0,0,1-1.136-2.893c-1.657-.935-2.994-1.525-2.994-1.525Z" transform="translate(-160.226 -231.49)" opacity="0.1"/>
    <path id="パス_305" data-name="パス 305" d="M263.05,408.987c0,1.632,13.06,21.608,13.06,21.608s5.09,8.642,6.245,9.414,4.9,6.816,4.9,6.816,4.707,10.851,5.479,12.006,2.109,6.9,2.109,6.9,2.692,7.971,3.941,9.025,1.92,4.9,1.92,4.9,3.935,5.761,4.607,6.722a41.3,41.3,0,0,1,2.115,4.318s2.115,3.458,2.115,4.807,4.393,3.646,4.393,3.646,3.138,3.766,4.989,4.393,3.559,5.09,3.841,4.8,3.559,0,3.559,0,7.776-9.314,6.527-10.945-1.538-5.479-1.538-5.479,3.138-7.2,1.443-7.581-8.228-11.78-8.228-11.78c-.094-8.642-7.971-15.941-7.971-15.941s-3.941-9.414-5.09-11.429a3.1,3.1,0,0,1,0-3.458,12.748,12.748,0,0,1-2.592-2.592c-.383-.866-2.209-7.393-2.209-7.393s-2.209-3.941-2.31-5.768-4.393-6.9-4.393-6.9-1.745-8.554-3.665-10.092c-.377-.3-.314-1.425,0-3.056.885-4.3,3.7-12.069,5.648-17.159,1.111-2.912,1.933-4.952,1.933-4.952l-3.715.929-31.631,7.908s-1.713,4.6-3.22,8.937A51.027,51.027,0,0,0,263.05,408.987Z" transform="translate(-125.009 -166.239)" fill="#5e5a6b"/>
    <path id="パス_306" data-name="パス 306" d="M355.388,548.4s9.891-3.841,5.021,1.054-14.209,4.613-14.209,4.613Z" transform="translate(-155.973 -226.994)" opacity="0.1"/>
    <path id="パス_307" data-name="パス 307" d="M331.144,518s-5.567,3.075-4.512,6.05S331.144,518,331.144,518Z" transform="translate(-148.636 -216.207)" opacity="0.1"/>
    <path id="パス_308" data-name="パス 308" d="M321.163,480.08a5.824,5.824,0,0,1-5.479,2.975C311.673,482.961,321.163,480.08,321.163,480.08Z" transform="translate(-144.241 -202.085)" opacity="0.1"/>
    <path id="パス_309" data-name="パス 309" d="M241.222,412s2.115,6.533,0,7.01S241.222,412,241.222,412Z" transform="translate(-116.53 -176.733)" opacity="0.1"/>
    <path id="パス_310" data-name="パス 310" d="M330.837,300.573c.063.628,1.255,1.927,2.874,3.464.916-2.95,1.77-5.648,1.255-6.54-.766-1.343,2.234-4.224,1.695-6.144-.414-1.469,3.2-5.19,4.92-6.853-.985-.979-1.619-1.5-1.619-1.5l-4.393,1.343S330.649,298.64,330.837,300.573Z" transform="translate(-150.25 -128.694)" opacity="0.1"/>
    <path id="パス_311" data-name="パス 311" d="M266.64,399.475c3.646-.2,12.15-2.837,12.15-2.837a123.065,123.065,0,0,0,16.318-1.644c3.138-.628,5.423-1.525,5.423-2.711,0-1.588,1.3-3.715,2.774-5.648a44.986,44.986,0,0,1,3.226-3.659,5.831,5.831,0,0,0,1.337-2.165c.088-.257.195-.546.3-.847-.628-1.042-1.205-1.833-1.205-1.833l-5.441,4.481-31.631,7.908S268.121,395.138,266.64,399.475Z" transform="translate(-126.345 -164.12)" opacity="0.1"/>
    <path id="パス_312" data-name="パス 312" d="M240.185,348.945s7.1,4.224,9.219,4.989,13.443-2.736,13.443-2.736,21.709-.715,21.709-4.393c0-2.818,4.117-7.349,6-9.27a5.806,5.806,0,0,0,1.337-2.171c.659-1.883,1.99-5.379,3.226-6.615,1.732-1.726-.96-10.945-.96-10.945s-.577-6.533-1.343-8.454,0-2.2-.628-3.841c-.741-1.839-1.255-1.732-.32-5.956s3.264-9.6,2.51-10.952,2.234-4.224,1.695-6.144,5.793-7.682,5.793-7.682-.791-6.282-1.362-7.086-2.686-5.184-2.686-6.144-1.349-1.155-2.115-2.3-9.634,29.774-9.634,29.774l-12.922,2.912-.715.157s-7.349.345-12.119-2.3c0,0-8.24-1.343-10.933-14.981a31.574,31.574,0,0,0-5.975,2.159,13.281,13.281,0,0,0-5.165,3.985,26.146,26.146,0,0,1-6.9,6.74,55.942,55.942,0,0,0-2.115,6.32c-.571,2.51-1.149,6.533-2.881,8.648s-2.51,8.448-2.51,8.448l17.316,15.759s-.383,4.035-1.343,3.841S240.185,348.945,240.185,348.945Z" transform="translate(-110.403 -119.834)" fill="#464353"/>
    <path id="パス_313" data-name="パス 313" d="M255.06,287.433l9.238,19.261s3.841,2.51,5.19,1.149,6.433-1.343,6.433-1.343l.672,1.343,9.734-2.3-1.525-3.138-.715.163s-7.349.345-12.119-2.3c0,0-8.24-1.349-10.933-14.987a31.574,31.574,0,0,0-5.975,2.153Z" transform="translate(-122.033 -129.543)" opacity="0.1"/>
    <path id="パス_314" data-name="パス 314" d="M255.06,286.209l9.238,19.255s3.841,2.51,5.19,1.155,6.433-1.343,6.433-1.343l.672,1.343,9.734-2.3-1.525-3.138-.715.157s-7.349.345-12.119-2.3c0,0-8.24-1.343-10.933-14.981a31.575,31.575,0,0,0-5.975,2.159Z" transform="translate(-122.033 -129.085)" fill="#464353"/>
    <path id="パス_315" data-name="パス 315" d="M261.52,376.78s20.385,6.414,21.9,7.224S261.614,378.989,261.52,376.78Z" transform="translate(-124.439 -163.617)" opacity="0.1"/>
    <path id="パス_316" data-name="パス 316" d="M277.524,392.39s-5.36,2.981-7.28,1.92S277.524,392.39,277.524,392.39Z" transform="translate(-127.589 -169.43)" opacity="0.1"/>
    <path id="パス_317" data-name="パス 317" d="M307.346,335.63s5.159,27.558-2.466,35.623Z" transform="translate(-140.586 -148.293)" opacity="0.1"/>
    <path id="パス_318" data-name="パス 318" d="M298.472,257.49a5.774,5.774,0,0,0,.207-7.619A19.99,19.99,0,0,1,296.6,247.7a9.332,9.332,0,0,0-1.017-1.669c-.992-1.017-2.661-.747-4.023-1.161a9.042,9.042,0,0,1-3.295-2.328,25.889,25.889,0,0,0-5.366-3.766,10.593,10.593,0,0,0-6.471-1.469c-1.738.289-3.289,1.255-4.989,1.738-2.41.684-5.379.546-6.9,2.542-.722.948-.929,2.209-1.613,3.195-.967,1.393-2.743,2.046-3.766,3.42-1.123,1.55-1,3.678-.521,5.529a7.605,7.605,0,0,1,.49,3.634c-.138.59-.446,1.136-.565,1.732-.314,1.556.69,3.031,1.362,4.475a11.3,11.3,0,0,1,1.042,4.989,2.241,2.241,0,0,0,.157,1.136,1.99,1.99,0,0,0,.759.678l2.887,1.82a1.256,1.256,0,0,0,.452.2c.565.088.91-.559,1.255-.992.967-1.155,2.805-1.067,4.167-.414s2.479,1.726,3.847,2.347c3.207,1.462,6.9.163,10.374-.508a22.893,22.893,0,0,0,3.508-.791,16.315,16.315,0,0,0,3.075-1.651,10.964,10.964,0,0,0,2.63-2.065,3.709,3.709,0,0,0,.872-3.4c-.282-1.01-1.186-1.92-1-3.044C294.3,259.932,297.21,258.771,298.472,257.49Z" transform="translate(-123.232 -111.644)" opacity="0.1"/>
    <path id="パス_319" data-name="パス 319" d="M298.472,256.267a5.78,5.78,0,0,0,.207-7.625,19.936,19.936,0,0,1-2.084-2.165,9.615,9.615,0,0,0-1.017-1.676c-.992-1.01-2.661-.741-4.023-1.155a9.058,9.058,0,0,1-3.295-2.335,25.625,25.625,0,0,0-5.366-3.766,10.593,10.593,0,0,0-6.471-1.469c-1.738.289-3.289,1.255-4.989,1.738-2.41.684-5.379.54-6.9,2.51-.722.954-.929,2.215-1.613,3.2-.967,1.393-2.743,2.046-3.766,3.42-1.123,1.55-1,3.678-.521,5.529a7.6,7.6,0,0,1,.49,3.634c-.138.59-.446,1.136-.565,1.732-.314,1.556.69,3.031,1.362,4.469a11.3,11.3,0,0,1,1.073,5.065,2.266,2.266,0,0,0,.157,1.142,2.1,2.1,0,0,0,.759.678l2.887,1.814a1.255,1.255,0,0,0,.452.207c.565.082.91-.559,1.255-1,.967-1.155,2.805-1.061,4.167-.414s2.479,1.726,3.847,2.347c3.207,1.462,6.9.163,10.374-.5a23.681,23.681,0,0,0,3.508-.8,16.317,16.317,0,0,0,3.075-1.644,10.989,10.989,0,0,0,2.63-2.071,3.7,3.7,0,0,0,.872-3.4c-.282-1.017-1.186-1.927-1-3.044C294.3,258.7,297.21,257.541,298.472,256.267Z" transform="translate(-123.232 -111.186)" fill="#464353"/>
    <path id="パス_320" data-name="パス 320" d="M217.908,366.785c-.1,2.592,2.109,6.05,2.109,6.05.672,1.632,8.931,9.219,8.931,9.219l6.533,4.393s8.743,5.379,10.807,6.339c1.036.483,2.146,2.51,3.006,4.494s1.456,3.766,1.456,3.766a8.592,8.592,0,0,0,7.3-7.632c.245-2.473.408-4.695.195-4.738-.483-.094-5.862-4.13-5.862-4.13s-6.238-4.035-8.259-8.065-9.891-10.18-9.891-10.18l.126-.232.452-.828.96-3.169-15.062-6.722s-.37,1.224-.847,2.9A53.7,53.7,0,0,0,217.908,366.785Z" transform="translate(-108.197 -155.636)" fill="#ecb4b6"/>
    <path id="パス_321" data-name="パス 321" d="M221,358.28a83.541,83.541,0,0,0,9.107,7.763c.935.546,4.211.207,5.41.056l.452-.828.96-3.169-15.062-6.722S221.471,356.591,221,358.28Z" transform="translate(-109.349 -155.648)" opacity="0.1"/>
    <path id="パス_322" data-name="パス 322" d="M235.588,338.071s7.682,4.613,7.3,6.628-3.64,8.981-3.64,8.981l-3.659,3.025s-4.707.672-5.862,0-9.314-7.393-9.6-8.448,0-4.613,0-5.379,2.3-4.519,2.3-4.519l3.364-5.95Z" transform="translate(-108.975 -147.094)" fill="#464353"/>
    <path id="パス_323" data-name="パス 323" d="M235.266,370.45l2.259,6.069-3.81,3.6-.176,1.086-8.454,4.864-2.686-6.784Z" transform="translate(-82.821 -137.95)" opacity="0.1"/>
    <path id="パス_324" data-name="パス 324" d="M235.266,369.84l2.259,6.063-3.81,3.609-.176,1.086-8.454,4.864-2.686-6.784Z" transform="translate(-82.821 -137.723)" fill="#5e5a6b"/>
    <g id="グループ_4" data-name="グループ 4" transform="translate(135.09 138.089)" opacity="0.1">
      <path id="パス_325" data-name="パス 325" d="M315.293,269.487a2.184,2.184,0,0,1-.126-1.086c.314-1.964,3.22-3.138,4.481-4.393a5.479,5.479,0,0,0,1.487-3.138,5.68,5.68,0,0,1-1.487,4.7C318.488,266.707,315.94,267.786,315.293,269.487Z" transform="translate(-279.5 -258.542)"/>
      <path id="パス_326" data-name="パス 326" d="M258.773,270.68a15.971,15.971,0,0,0,1.324,3.063,11.3,11.3,0,0,1,1.048,4.989,2.253,2.253,0,0,0,.151,1.142,2.084,2.084,0,0,0,.759.678l2.887,1.814a1.161,1.161,0,0,0,.458.207c.559.082.9-.559,1.255-.992.966-1.155,2.812-1.067,4.167-.421s2.479,1.726,3.847,2.354c3.213,1.456,6.9.163,10.374-.508a22.913,22.913,0,0,0,3.508-.8,16.1,16.1,0,0,0,3.075-1.644,10.984,10.984,0,0,0,2.636-2.071,4.18,4.18,0,0,0,.891-1.738,3.728,3.728,0,0,1-.891,3.276,11.145,11.145,0,0,1-2.636,2.071,16.1,16.1,0,0,1-3.075,1.644,23.682,23.682,0,0,1-3.508.8c-3.464.665-7.161,1.964-10.374.5-1.368-.628-2.51-1.695-3.847-2.347s-3.2-.741-4.167.414c-.364.439-.709,1.079-1.255,1a1.255,1.255,0,0,1-.458-.207l-2.887-1.814a2.2,2.2,0,0,1-.759-.678,2.266,2.266,0,0,1-.151-1.142,11.3,11.3,0,0,0-1.048-4.989c-.672-1.437-1.676-2.912-1.362-4.469A1.044,1.044,0,0,1,258.773,270.68Z" transform="translate(-258.47 -262.195)"/>
      <path id="パス_327" data-name="パス 327" d="M258.694,258.873a7.949,7.949,0,0,1,.5,3.559c-.113-.678-.326-1.356-.5-2.021a9.069,9.069,0,0,1-.314-3.251A10.315,10.315,0,0,0,258.694,258.873Z" transform="translate(-258.348 -257.16)"/>
    </g>
    <circle id="楕円形_9" data-name="楕円形 9" cx="13.575" cy="13.575" r="13.575" transform="translate(0 69.982)" fill="#6c63ff" opacity="0.1"/>
    <circle id="楕円形_10" data-name="楕円形 10" cx="13.575" cy="13.575" r="13.575" transform="translate(368.472 12.782)" fill="#6c63ff" opacity="0.1"/>
    <circle id="楕円形_11" data-name="楕円形 11" cx="13.575" cy="13.575" r="13.575" transform="translate(583.835 66.411)" fill="#6c63ff" opacity="0.1"/>
    <circle id="楕円形_12" data-name="楕円形 12" cx="22.751" cy="22.751" r="22.751" transform="translate(17.968 135.698)" fill="#6c63ff" opacity="0.1"/>
    <circle id="楕円形_13" data-name="楕円形 13" cx="22.751" cy="22.751" r="22.751" transform="translate(295.846 472.727)" fill="#6c63ff" opacity="0.1"/>
    <circle id="楕円形_14" data-name="楕円形 14" cx="22.751" cy="22.751" r="22.751" transform="translate(598.922 459.611)" fill="#6c63ff" opacity="0.1"/>
  </g>
</svg>
